<?xml version="1.0" encoding="UTF-8" standalone="no"?>
<svg width="100px" height="100px" viewBox="0 0 100 100" version="1.1" xmlns="http://www.w3.org/2000/svg" xmlns:xlink="http://www.w3.org/1999/xlink">
    <defs>
        <linearGradient x1="35.6351926%" y1="-2.08864266%" x2="81.5317397%" y2="137.781163%" id="linearGradient-1">
            <stop stop-color="#FF992E" offset="0%"></stop>
            <stop stop-color="#FF4C2E" offset="63.5%"></stop>
            <stop stop-color="#E3302E" offset="100%"></stop>
        </linearGradient>
    </defs>
    <g id="Page-1" stroke="none" stroke-width="1" fill="none" fill-rule="evenodd">
        <rect id="Rectangle-1" fill="#F47A33" x="0" y="0" width="100" height="100"></rect>
        <g id="bourbon-glass" transform="translate(27.000000, 28.000000)">
            <path d="M8.75643564,43.824 C6.14257426,43.824 3.92079208,41.844 3.57227723,39.248 C3.52871287,38.896 -0.0871287129,6.028 -0.130693069,5.72 C-0.130693069,5.632 -0.174257426,5.456 -0.174257426,5.368 L-0.174257426,4.312 C-0.174257426,3.432 0.217821782,2.508 0.871287129,1.892 C1.52475248,1.1 2.91881188,2.48689958e-14 22.0435644,2.48689958e-14 C41.1247525,2.48689958e-14 42.5623762,1.144 43.1722772,1.892 C43.8257426,2.552 44.1742574,3.432 44.1742574,4.356 L44.1742574,5.324 C44.1742574,5.456 44.1742574,5.632 44.1306931,5.764 L40.209901,39.248 C40.209901,39.336 40.1663366,39.424 40.1663366,39.512 C39.6871287,41.976 37.5524752,43.824 35.0257426,43.824 L8.75643564,43.824 L8.75643564,43.824 Z" id="Shape" fill="#E5D1BF"></path>
            <g id="Group" transform="translate(1.306931, 1.320000)">
                <g>
                    <path d="M41.5168317,2.992 C41.5168317,2.376 41.2554455,1.848 40.8633663,1.452 C39.9485149,0.352 31.2792079,-0.044 20.6930693,-0.044 C10.1069307,-0.044 1.43762376,0.308 0.479207921,1.408 C0.0871287129,1.804 -0.174257426,2.332 -0.174257426,2.948 L-0.174257426,3.916 C-0.174257426,4.004 -0.174257426,4.092 -0.130693069,4.18 C-0.130693069,4.268 3.57227723,37.664 3.57227723,37.664 C3.83366337,39.6 5.48910891,41.096 7.44950495,41.096 L33.6752475,41.096 C35.6792079,41.096 37.2910891,39.6 37.5524752,37.664 L37.5524752,37.664 L41.4732673,4.18 L41.4732673,3.916 L41.4732673,2.992 L41.5168317,2.992 Z" id="Shape" fill="#FEF9EC"></path>
                    <ellipse id="Oval" fill="#E5D1BF" cx="20.6059406" cy="2.772" rx="18.4277228" ry="1.012"></ellipse>
                </g>
                <path d="M35.6792079,34.496 C35.6356436,35.684 34.7643564,36.608 33.5881188,36.608 L7.58019802,36.608 C6.44752475,36.608 5.57623762,35.64 5.48910891,34.496 C5.31485149,31.372 4.18217822,22.044 4.18217822,22.044 C4.18217822,21.208 4.53069307,20.724 5.48910891,20.724 L35.6792079,20.724 C36.5069307,20.724 36.9861386,21.164 36.9861386,22.044 C36.9861386,22.044 35.809901,31.372 35.6792079,34.496 L35.6792079,34.496 Z" id="Shape" fill="url(#linearGradient-1)"></path>
            </g>
            <path d="M16.6851485,23.716 C16.1623762,24.42 16.2930693,25.432 16.990099,25.96 L22.6970297,30.404 C23.3940594,30.932 24.3960396,30.8 24.9188119,30.096 L29.3188119,24.332 C29.8415842,23.628 29.7108911,22.616 29.0138614,22.088 L23.3069307,17.644 C22.609901,17.116 21.6079208,17.248 21.0851485,17.952 L16.6851485,23.716 L16.6851485,23.716 Z" id="Shape" opacity="0.65" fill="#FEF9EC"></path>
            <path d="M11.239604,19.492 C10.3683168,19.624 9.75841584,20.416 9.88910891,21.296 L10.8039604,28.512 C10.9346535,29.392 11.7188119,30.008 12.590099,29.876 L19.7346535,28.952 C20.6059406,28.82 21.2158416,28.028 21.0851485,27.148 L20.170297,19.932 C20.039604,19.052 19.2554455,18.436 18.3841584,18.568 L11.239604,19.492 L11.239604,19.492 Z" id="Shape" opacity="0.65" fill="#FEF9EC"></path>
        </g>
    </g>
</svg>