<?xml version="1.0" encoding="UTF-8" standalone="no"?>
<svg width="100px" height="100px" viewBox="0 0 100 100" version="1.1" xmlns="http://www.w3.org/2000/svg" xmlns:xlink="http://www.w3.org/1999/xlink">
    <defs></defs>
    <g id="Page-1" stroke="none" stroke-width="1" fill="none" fill-rule="evenodd">
        <rect id="Rectangle-1" fill="#AD4A35" x="0" y="0" width="100" height="100"></rect>
        <g transform="translate(26.000000, 31.000000)" id="Shape" fill="#FFFFC1">
            <path d="M26.2547297,6.15941836 C25.3277027,5.92811406 24.0033784,5.39941836 23.3081081,5.00289666 C22.5797297,4.60637496 21.3878378,3.91246186 20.5932432,3.44985316 C18.7391892,2.39246186 15.5939189,2.09507056 14.7993243,2.88811406 C14.0709459,3.61507056 14.1040541,3.94550536 14.9317568,4.40811406 C15.3952703,4.63941836 16.3554054,4.70550536 17.5804054,4.57333146 C19.1695946,4.37507056 19.5337838,4.44115756 19.5337838,4.83767926 C19.5337838,5.43246186 17.8452703,6.02724446 16.6533784,5.82898366 C14.0047297,5.43246186 13.6074324,5.30028796 13.2763514,4.90376626 C12.4817568,3.94550536 12.5810811,2.98724446 13.5743243,2.06202706 C15.7594595,0.0133314647 19.5668919,0.0463749647 23.9702703,2.19420106 C27.6452703,3.97854886 29.4,4.47420106 31.8168919,4.44115756 C33.9689189,4.44115756 35.0945946,3.97854886 35.0945946,3.08637496 C35.0945946,1.69854886 30.8567568,1.16985316 29.4993243,2.42550536 C28.8040541,3.05333146 28.7378378,3.08637496 27.9763514,2.59072276 C26.9831081,1.96289666 26.95,1.66550536 27.7445946,1.00463576 C28.5391892,0.277679265 29.4993243,0.0463749647 31.5851351,0.0133314647 C35.1277027,-0.0527555353 37.7432432,1.20289666 37.7432432,3.02028796 C37.7432432,5.92811406 31.7837838,7.58028796 26.2547297,6.15941836 L26.2547297,6.15941836 L26.2547297,6.15941836 Z" transform="translate(25.244932, 3.344057) scale(1, -1) translate(-25.244932, -3.344057) "></path>
            <path d="M4.46959459,10.8261352 C2.0527027,9.5704831 1.68851351,8.3478744 3.31081081,6.9930917 C4.63513514,5.8696135 7.11824324,4.9774396 11.2567568,4.1513526 C16.1567568,3.1930917 18.7722973,2.9948309 26.3209459,3.0278744 C35.7236486,3.0609178 42.5108108,4.1183091 46.6493243,6.1670048 C49.1986486,7.4557004 49.4635135,9.2730917 47.2783784,10.5617874 C46.3182432,11.1235265 46.2851351,11.1235265 46.4837838,10.4957004 C46.7817568,9.5374396 46.4175676,8.8435265 45.1925676,8.0835265 C44.0006757,7.35657 39.9945946,6.2330917 37.5114865,5.9357004 C36.6175676,5.83657 35.5581081,5.6713526 35.0945946,5.5722222 C33.3398649,5.142657 19.3682432,5.2087439 16.0574324,5.6383091 C10.5283784,6.3652657 6.72094595,7.5878744 5.62837838,9.0087439 C4.99932432,9.7687439 4.99932432,9.9009178 5.46283784,10.6278744 C6.05878378,11.5200483 5.82702703,11.5530917 4.46959459,10.8261352 L4.46959459,10.8261352 L4.46959459,10.8261352 Z" transform="translate(25.538348, 7.180894) scale(1, -1) translate(-25.538348, -7.180894) "></path>
            <path d="M3.675,32.746087 L4.40337838,30.2678261 L2.71486486,28.4504348 C-0.927027027,24.4521739 -0.927027027,19.3304348 2.71486486,16.1913043 C4.86689189,14.373913 8.47567568,13.9773913 10.7932432,15.2991304 C11.3560811,15.6295652 11.322973,15.6626087 10.4952703,15.6956522 C8.70743243,15.6956522 5.92635135,17.6121739 4.60202703,19.6608696 C3.90675676,20.7182609 3.37702703,23.1634783 3.54256757,24.4191304 C3.70810811,25.5095652 4.86689189,27.9217391 5.23108108,27.9217391 C5.36351351,27.9217391 5.79391892,27.1947826 6.19121622,26.3356522 C6.62162162,25.4434783 8.07837838,23.0973913 9.50202703,21.1147826 C11.7864865,17.9095652 13.5412162,14.6052174 13.5743243,13.4817391 C13.5743243,12.6556522 16.1567568,11.0365217 18.6398649,10.2434783 C20.825,9.54956521 21.8513514,9.4173913 25.5594595,9.4173913 C33.5716216,9.4173913 37.3128378,11.1356522 38.5047297,15.3652174 C38.8027027,16.3565217 39.6966216,18.0747826 40.4912162,19.1652174 C44.5635135,24.7826087 45.3581081,26.1373913 46.7817568,30.0695652 C47.2452703,31.3582609 47.8412162,33.44 48.1722973,34.6956522 C48.4702703,35.9843478 48.7682432,37.2069565 48.8344595,37.4052174 C48.9337838,37.6365217 48.4371622,37.4713043 47.7418919,37.0086956 C45.9540541,35.8191304 43.1067568,34.893913 39.5310811,34.3321739 C38.8689189,34.2330435 38.0081081,34.0678261 37.6108108,34.0017391 C34.4324324,33.373913 21.3216216,33.1095652 16.7195946,33.6382609 C10.1310811,34.3652174 5.16486486,35.72 3.34391892,37.306087 L2.58243243,38 L2.78108108,36.6121739 C2.88040541,35.8521739 3.2777027,34.1008696 3.675,32.746087 Z" transform="translate(24.415281, 23.708696) scale(1, -1) translate(-24.415281, -23.708696) "></path>
        </g>
    </g>
</svg>