<?xml version="1.0" encoding="UTF-8" standalone="no"?>
<svg width="100px" height="100px" viewBox="0 0 100 100" version="1.1" xmlns="http://www.w3.org/2000/svg" xmlns:xlink="http://www.w3.org/1999/xlink">
    <defs></defs>
    <g id="Page-1" stroke="none" stroke-width="1" fill="none" fill-rule="evenodd">
        <rect id="Rectangle-1" fill="#F4F4F0" x="0" y="0" width="100" height="100"></rect>
        <g id="haml" transform="translate(29.000000, 24.000000)">
            <path d="M19.1834862,25.9738711 L15.7229358,51.2805377 C15.7229358,51.2805377 10.0807339,53.3990563 4.96513761,48.9694266 L10.5697248,24.4331303 L-1.0658141e-14,2.47757478 C-1.0658141e-14,2.47757478 4.17522936,0.667204408 6.84587156,1.2835007 L16.1366972,19.2331303 L32.2357798,5.21238959 C32.2357798,5.21238959 37.6522936,7.13831552 38.1412844,8.98720441 L19.1834862,25.9738711 L19.1834862,25.9738711 Z" id="Shape" fill="#ECDFA7"></path>
            <g id="Group" transform="translate(1.880734, 0.000000)" fill="#3F3E29">
                <path d="M38.4422018,28.5037037 C38.1788991,27.9644444 37.840367,27.4637037 37.4642202,27.0014815 C36.7119266,26.1155556 35.8091743,25.3837037 34.8311927,24.8059259 C33.8908257,24.1896296 32.8376147,23.6888889 31.7844037,23.3422222 L31.3706422,23.2266667 C31.2577982,23.1881481 31.1449541,23.1496296 31.0321101,23.1111111 C30.806422,23.0340741 30.6183486,22.9185185 30.4302752,22.8414815 C30.0541284,22.6103704 29.7908257,22.3792593 29.6027523,22.0711111 C29.2266055,21.4933333 29.1889908,20.6074074 29.3770642,19.682963 C29.4146789,19.4518519 29.4899083,19.2207407 29.5651376,18.9896296 C29.640367,18.7585185 29.7155963,18.5274074 29.7908257,18.2577778 C29.866055,17.9111111 29.9036697,17.5644444 29.9036697,17.1407407 L30.0917431,16.9866667 L32.3486239,15.0607407 C32.7623853,14.7140741 33.1761468,14.3288889 33.5899083,13.9822222 C33.740367,14.0592593 33.8908257,14.1748148 34.0036697,14.2518519 C34.0036697,14.2518519 35.1697248,14.3674074 35.8091743,12.557037 L35.4706422,12.3259259 L35.6963303,12.1333333 L36.2605505,11.6325926 C36.4486239,11.4785185 36.5990826,11.2859259 36.6743119,10.9392593 C36.3357798,10.9007407 36.1100917,11.0162963 35.9220183,11.1703704 L35.3201835,11.6325926 L34.906422,11.9407407 L29.7155963,8.28148148 C29.9788991,8.05037037 30.2045872,7.85777778 30.4678899,7.62666667 L31.5587156,6.62518519 C31.5963303,6.58666667 31.633945,6.54814815 31.6715596,6.50962963 C31.7844037,6.58666667 31.859633,6.6637037 31.9724771,6.74074074 C32.2357798,6.93333333 32.5366972,7.12592593 32.8,7.28 L34.4550459,8.20444444 C34.9816514,8.51259259 35.5458716,8.82074074 36.1100917,9.09037037 C36.3733945,9.24444444 36.6743119,9.36 36.9752294,9.47555556 C37.1256881,9.51407407 37.2761468,9.59111111 37.4266055,9.62962963 C37.5018349,9.62962963 37.6146789,9.66814815 37.6899083,9.66814815 L37.8779817,9.66814815 C37.953211,9.66814815 38.0284404,9.62962963 38.1036697,9.51407407 L38.1036697,9.47555556 C38.1036697,9.43703704 38.1036697,9.39851852 38.1412844,9.36 L38.1412844,9.20592593 C38.1412844,9.12888889 38.1036697,9.09037037 38.066055,9.05185185 C38.0284404,8.97481481 37.953211,8.89777778 37.9155963,8.82074074 C37.8027523,8.70518519 37.6899083,8.55111111 37.5770642,8.47407407 C37.3513761,8.24296296 37.0880734,8.05037037 36.8623853,7.85777778 C36.3733945,7.47259259 35.846789,7.12592593 35.3201835,6.77925926 C34.793578,6.43259259 34.2669725,6.12444444 33.7027523,5.85481481 C33.4394495,5.70074074 33.1385321,5.58518519 32.8376147,5.46962963 C32.687156,5.43111111 32.5366972,5.35407407 32.3486239,5.31555556 C32.2733945,5.31555556 32.1605505,5.27703704 32.0477064,5.27703704 C31.9724771,5.27703704 31.9348624,5.27703704 31.8220183,5.31555556 C31.746789,5.35407407 31.633945,5.39259259 31.5211009,5.50814815 C31.2577982,5.6237037 31.0321101,5.73925926 30.8440367,5.89333333 L29.7155963,6.54814815 C29.3770642,6.81777778 29.0009174,7.12592593 28.6623853,7.39555556 L28.2862385,7.12592593 C28.2862385,7.12592593 26.706422,7.28 27.2330275,8.32 C27.2330275,8.32 27.2706422,8.35851852 27.3834862,8.47407407 C25.8788991,9.74518519 24.4119266,11.0548148 22.9449541,12.3259259 C21.440367,13.6355556 19.9733945,14.9451852 18.4688073,16.2933333 L16.2495413,18.2962963 C16.1366972,18.4118519 16.0238532,18.5274074 15.8733945,18.642963 C15.7981651,18.4118519 15.6853211,18.2192593 15.6100917,18.0266667 L15.0834862,16.8711111 L14.0678899,14.56 C13.3908257,13.0192593 12.7137615,11.4785185 11.9990826,9.93777778 L9.89266055,5.35407407 C9.77981651,5.12296296 9.66697248,4.89185185 9.55412844,4.66074074 L10.0055046,4.66074074 C10.0055046,4.66074074 10.1559633,3.38962963 9.25321101,3.15851852 C9.25321101,3.15851852 9.10275229,3.15851852 8.87706422,3.19703704 C8.53853211,2.5037037 8.23761468,1.81037037 7.89908257,1.11703704 L7.89908257,1.11703704 L7.74862385,0.539259259 C7.71100917,0.346666667 7.59816514,0.26962963 7.52293578,0.192592593 C7.44770642,0.154074074 7.37247706,0.115555556 7.33486239,0.115555556 C7.22201835,0.077037037 7.14678899,0.077037037 7.03394495,0.0385185185 C6.84587156,0 6.69541284,0 6.54495413,0 C6.20642202,0 5.90550459,0.0385185185 5.60458716,0.077037037 C5.00275229,0.154074074 4.36330275,0.26962963 3.76146789,0.423703704 C3.15963303,0.577777778 2.55779817,0.731851852 1.9559633,0.924444444 C1.65504587,1.04 1.35412844,1.11703704 1.09082569,1.27111111 C0.940366972,1.34814815 0.789908257,1.42518519 0.639449541,1.50222222 C0.564220183,1.54074074 0.488990826,1.61777778 0.413761468,1.6562963 C0.376146789,1.69481481 0.33853211,1.73333333 0.300917431,1.77185185 C0.263302752,1.81037037 0.263302752,1.84888889 0.225688073,1.88740741 L0.225688073,2.00296296 L0.225688073,2.00296296 L0.225688073,2.04148148 C0.263302752,2.19555556 0.33853211,2.23407407 0.413761468,2.27259259 C0.488990826,2.31111111 0.526605505,2.34962963 0.564220183,2.34962963 C0.67706422,2.38814815 0.752293578,2.38814815 0.827522936,2.42666667 C0.977981651,2.46518519 1.16605505,2.46518519 1.31651376,2.46518519 C1.61743119,2.46518519 1.9559633,2.42666667 2.25688073,2.38814815 C2.8587156,2.31111111 3.49816514,2.23407407 4.1,2.11851852 L5.94311927,1.81037037 C6.2440367,1.77185185 6.54495413,1.69481481 6.88348624,1.61777778 C7.14678899,2.15703704 7.41009174,2.73481481 7.6733945,3.27407407 C5.94311927,3.42814815 3.23486239,3.65925926 1.54220183,3.85185185 C1.35412844,3.50518519 1.20366972,3.19703704 1.01559633,2.85037037 C0.977981651,2.77333333 0.865137615,2.6962963 0.752293578,2.73481481 C0.639449541,2.77333333 0.601834862,2.88888889 0.639449541,3.00444444 C0.752293578,3.31259259 0.865137615,3.58222222 0.977981651,3.89037037 C0.451376147,3.96740741 0.112844037,4.04444444 0.0752293578,4.12148148 C-0.112844037,4.46814815 0.451376147,6.27851852 1.20366972,6.74074074 C1.20366972,6.74074074 1.50458716,6.62518519 2.03119266,6.50962963 C2.29449541,7.12592593 2.55779817,7.74222222 2.82110092,8.35851852 L5.07798165,13.597037 L7.37247706,18.8355556 C8.12477064,20.5688889 8.9146789,22.3022222 9.70458716,24.0740741 L9.70458716,24.0740741 C9.70458716,24.0740741 9.70458716,24.1125926 9.74220183,24.1125926 C9.6293578,24.4977778 9.51651376,24.882963 9.40366972,25.2681481 C9.10275229,26.3466667 8.80183486,27.4251852 8.50091743,28.5037037 C7.93669725,30.6607407 7.41009174,32.8562963 6.88348624,35.0133333 L6.09357798,38.2874074 L5.3412844,41.5614815 C4.8146789,43.757037 4.32568807,45.9140741 3.72385321,48.0711111 C3.72385321,48.1096296 3.72385321,48.1866667 3.76146789,48.2251852 C4.06238532,48.6488889 4.47614679,48.957037 4.85229358,49.2651852 C5.26605505,49.5733333 5.67981651,49.8044444 6.09357798,50.0355556 C6.9587156,50.4977778 7.86146789,50.8444444 8.80183486,51.1525926 C9.74220183,51.4222222 10.7201835,51.6148148 11.7357798,51.6533333 C12.2247706,51.6918519 12.7513761,51.6533333 13.240367,51.5762963 C13.7293578,51.4992593 14.2183486,51.4222222 14.7449541,51.2681481 C14.8954128,51.2296296 15.0082569,51.0755556 15.0458716,50.9214815 L15.0458716,50.882963 C15.459633,48.7644444 15.7981651,46.6074074 16.1743119,44.4888889 L17.2275229,38.0562963 C17.566055,35.8992593 17.9422018,33.7807407 18.2807339,31.6237037 C18.3183486,31.3925926 18.3559633,31.122963 18.393578,30.8918519 C18.4688073,30.9688889 18.506422,31.0844444 18.5816514,31.1614815 C18.9577982,31.6237037 19.4091743,32.0088889 19.8605505,32.3555556 C20.7633028,33.0103704 21.7412844,33.5111111 22.7192661,33.8962963 C23.6972477,34.2814815 24.712844,34.5896296 25.7284404,34.8207407 C26.4055046,34.9748148 27.0449541,35.0903704 27.7220183,35.1674074 C27.4211009,35.8607407 27.2330275,36.5925926 27.2706422,37.4014815 C27.2706422,37.4785185 27.3082569,37.5555556 27.3834862,37.5940741 L27.4211009,37.5940741 C28.1357798,37.9792593 28.8880734,38.2874074 29.7155963,38.48 C30.5055046,38.6340741 31.3706422,38.7111111 32.1981651,38.5955556 C33.0633028,38.48 33.9284404,38.1333333 34.6055046,37.5555556 C35.2825688,36.9777778 35.7715596,36.2074074 36.0724771,35.3985185 L36.1100917,35.36 L36.1100917,35.3214815 C36.1477064,34.9748148 36.1853211,34.6281481 36.2229358,34.2814815 L36.2229358,34.242963 C36.5990826,34.0118519 36.9752294,33.7807407 37.3513761,33.4725926 C37.8027523,33.0874074 38.2165138,32.6637037 38.5174312,32.1244444 C38.8183486,31.5851852 39.006422,30.9303704 38.9688073,30.2755556 C38.9311927,29.6592593 38.7055046,29.042963 38.4422018,28.5037037 L38.4422018,28.5037037 Z M37.7275229,9.09037037 L37.7275229,9.09037037 C37.7275229,9.09037037 37.7275229,9.12888889 37.7275229,9.09037037 L37.7275229,9.09037037 Z M35.0568807,7.04888889 C35.5834862,7.35703704 36.0724771,7.66518519 36.5614679,8.05037037 C36.787156,8.24296296 37.0504587,8.39703704 37.2761468,8.62814815 C37.3889908,8.7437037 37.5018349,8.82074074 37.5770642,8.9362963 C37.6146789,8.97481481 37.6146789,8.97481481 37.6522936,9.01333333 L37.5770642,9.01333333 C37.4266055,8.97481481 37.3137615,8.9362963 37.1633028,8.89777778 C36.9,8.78222222 36.5990826,8.66666667 36.3357798,8.55111111 C35.8091743,8.28148148 35.2449541,8.01185185 34.7559633,7.66518519 C34.2669725,7.31851852 33.7779817,6.93333333 33.3642202,6.50962963 C33.2137615,6.35555556 33.0633028,6.20148148 32.9504587,6.04740741 C33.1385321,6.12444444 33.3266055,6.20148148 33.5146789,6.27851852 C34.0036697,6.47111111 34.5302752,6.74074074 35.0568807,7.04888889 L35.0568807,7.04888889 Z M32.4990826,5.35407407 C32.4990826,5.35407407 32.4990826,5.35407407 32.5366972,5.39259259 L32.5366972,5.43111111 L32.5366972,5.46962963 C32.5366972,5.46962963 32.5366972,5.43111111 32.4990826,5.43111111 L32.4990826,5.35407407 L32.4990826,5.35407407 L32.4990826,5.35407407 Z M5.67981651,1.04 C5.15321101,1.30962963 4.55137615,1.50222222 3.98715596,1.6562963 C3.3853211,1.81037037 2.82110092,1.92592593 2.21926606,1.96444444 C1.91834862,2.00296296 1.61743119,2.00296296 1.31651376,2.00296296 C1.16605505,2.00296296 1.01559633,2.00296296 0.902752294,1.96444444 L0.789908257,1.96444444 C0.827522936,1.96444444 0.827522936,1.92592593 0.865137615,1.92592593 C0.977981651,1.84888889 1.12844037,1.81037037 1.2412844,1.73333333 C1.50458716,1.61777778 1.80550459,1.54074074 2.06880734,1.42518519 C2.63302752,1.27111111 3.23486239,1.11703704 3.83669725,1.00148148 C4.43853211,0.885925926 5.04036697,0.808888889 5.60458716,0.77037037 C5.79266055,0.77037037 5.98073394,0.77037037 6.16880734,0.731851852 C6.0559633,0.847407407 5.86788991,0.924444444 5.67981651,1.04 L5.67981651,1.04 Z M31.7844037,14.1748148 L29.4522936,16.0237037 L27.1201835,17.9111111 C26.4807339,18.4503704 25.8412844,18.9896296 25.2018349,19.4903704 C25.2394495,19.4518519 25.2770642,19.3748148 25.3146789,19.3362963 C25.6155963,18.9125926 25.9165138,18.5274074 26.2174312,18.1422222 C26.8568807,17.3718519 27.4587156,16.562963 28.1357798,15.8311111 C28.812844,15.0992593 29.5275229,14.3674074 30.2422018,13.7125926 C30.6183486,13.3659259 30.9944954,13.0577778 31.4082569,12.7881481 C31.5211009,12.7111111 31.633945,12.6340741 31.746789,12.557037 C32.0853211,12.8266667 32.4614679,13.0962963 32.8,13.3659259 C32.4990826,13.6355556 32.1229358,13.9051852 31.7844037,14.1748148 L31.7844037,14.1748148 Z M4.21284404,9.43703704 L4.40091743,9.62962963 C4.77706422,10.0148148 5.15321101,10.4 5.45412844,10.8237037 C5.75504587,11.2474074 6.01834862,11.7096296 6.13119266,12.1718519 C6.20642202,12.557037 6.20642202,12.9807407 6.01834862,13.3274074 L5.98073394,13.2118519 L4.21284404,9.43703704 L4.21284404,9.43703704 Z M6.0559633,13.442963 C6.16880734,13.3274074 6.2440367,13.1733333 6.31926606,12.9807407 C6.43211009,12.7111111 6.43211009,12.402963 6.39449541,12.1333333 C6.31926606,11.5555556 6.0559633,11.0162963 5.71743119,10.5925926 C5.22844037,9.93777778 4.6266055,9.39851852 3.94954128,8.9362963 L3.53577982,8.05037037 C3.27247706,7.47259259 3.00917431,6.89481481 2.70825688,6.35555556 C3.27247706,6.20148148 3.94954128,5.97037037 4.70183486,5.77777778 C5.37889908,6.89481481 5.98073394,8.05037037 6.54495413,9.24444444 C7.18440367,10.7466667 7.82385321,12.3259259 7.93669725,13.9437037 C7.97431193,14.3288889 7.93669725,14.7525926 7.93669725,15.1762963 C7.93669725,15.6 7.93669725,16.0237037 7.97431193,16.4474074 C8.01192661,17.0251852 8.12477064,17.6414815 8.23761468,18.2192593 L6.0559633,13.442963 L6.0559633,13.442963 Z M14.9330275,44.8355556 C14.8201835,44.9896296 14.7449541,45.1051852 14.5944954,45.2207407 C14.406422,45.3748148 14.2183486,45.4518519 13.9926606,45.4133333 C13.8045872,45.3748148 13.6541284,45.1822222 13.5788991,44.9896296 C13.5036697,44.797037 13.4284404,44.5659259 13.4284404,44.3348148 C13.3908257,43.8725926 13.3908257,43.4103704 13.5036697,42.9481481 C13.5788991,42.4859259 13.7293578,42.0622222 13.9174312,41.6385185 C14.0302752,41.4459259 14.1431193,41.2533333 14.293578,41.0992593 C14.4440367,40.9451852 14.6321101,40.8296296 14.8201835,40.8681481 C15.0082569,40.8681481 15.1963303,41.0607407 15.3091743,41.2533333 C15.3844037,41.3688889 15.4220183,41.4844444 15.459633,41.6 L15.0082569,44.3348148 C14.9706422,44.5274074 14.9706422,44.6814815 14.9330275,44.8355556 L14.9330275,44.8355556 Z M17.1522936,31.5466667 C16.9266055,32.8948148 16.7009174,34.242963 16.4752294,35.5911111 C16.4376147,35.3214815 16.3623853,35.0518519 16.287156,34.7822222 C16.0990826,34.0503704 15.8733945,33.357037 15.6477064,32.6637037 C15.1587156,31.277037 14.5944954,29.9288889 13.9174312,28.6577778 C14.3311927,30.082963 14.8201835,31.4311111 15.3091743,32.8177778 C15.5724771,33.5111111 15.7981651,34.2044444 16.0238532,34.8592593 C16.1366972,35.2059259 16.2495413,35.5525926 16.3623853,35.8992593 C16.3623853,35.9377778 16.4,36.0148148 16.4,36.0533333 C16.287156,36.6696296 16.1743119,37.2859259 16.0990826,37.9407407 L15.5348624,41.4459259 C15.4972477,41.3688889 15.4972477,41.2918519 15.459633,41.2148148 C15.346789,40.9837037 15.1963303,40.7525926 14.8954128,40.6755556 C14.6321101,40.5985185 14.3688073,40.7525926 14.1431193,40.9066667 C13.9550459,41.0607407 13.8045872,41.2918519 13.6541284,41.4844444 C13.3908257,41.9081481 13.240367,42.4088889 13.1651376,42.8711111 C13.0899083,43.3718519 13.0522936,43.8725926 13.1651376,44.3733333 C13.2027523,44.6044444 13.2779817,44.8740741 13.4284404,45.1051852 C13.5412844,45.3362963 13.7669725,45.5674074 14.0302752,45.6059259 C14.293578,45.6444444 14.5568807,45.4903704 14.7073394,45.2977778 C14.7825688,45.2207407 14.8577982,45.1051852 14.9330275,45.0281481 C14.6697248,46.8385185 14.3688073,48.6488889 14.1055046,50.4977778 C13.7669725,50.6133333 13.4284404,50.6903704 13.0899083,50.7288889 C12.6385321,50.8059259 12.187156,50.8444444 11.7357798,50.882963 C10.7954128,50.9214815 9.89266055,50.8444444 8.95229358,50.6133333 C8.04954128,50.4207407 7.10917431,50.1125926 6.2440367,49.7274074 C5.41651376,49.3422222 4.6266055,48.8414815 4.02477064,48.1481481 C4.58899083,46.0296296 5.22844037,43.9111111 5.86788991,41.7925926 L6.84587156,38.5955556 L7.78623853,35.36 C8.42568807,33.202963 9.06513761,31.0459259 9.66697248,28.8888889 C9.96788991,27.8103704 10.2311927,26.7318519 10.5321101,25.6533333 C10.7577982,24.5362963 11.2091743,23.4962963 10.8706422,22.2637037 L10.8706422,22.2251852 C10.8330275,22.1866667 10.7954128,22.1866667 10.7954128,22.2251852 C10.6073394,22.4177778 10.4944954,22.5718519 10.3440367,22.7644444 C9.93027523,21.8014815 9.47889908,20.877037 9.06513761,19.9140741 C8.95229358,19.5674074 8.83944954,19.2207407 8.76422018,18.8355556 C8.57614679,18.0266667 8.42568807,17.2177778 8.38807339,16.4088889 C8.35045872,15.9851852 8.35045872,15.6 8.35045872,15.1762963 C8.35045872,14.7525926 8.38807339,14.3288889 8.35045872,13.9051852 C8.2,12.2103704 7.56055046,10.5925926 6.84587156,9.09037037 C6.28165138,7.8962963 5.60458716,6.77925926 4.85229358,5.70074074 C6.09357798,5.35407407 7.41009174,5.00740741 8.46330275,4.81481481 C8.61376147,5.16148148 8.80183486,5.46962963 8.95229358,5.8162963 L11.2091743,10.3614815 C11.9614679,11.8637037 12.7137615,13.3659259 13.466055,14.8681481 L14.5944954,17.1022222 L15.1587156,18.2192593 C15.3091743,18.4503704 15.3844037,18.72 15.5348624,18.9125926 C15.0458716,19.3748148 14.5568807,19.837037 14.0678899,20.2992593 C14.0302752,20.3377778 13.9926606,20.4148148 14.0678899,20.4918519 C14.1055046,20.5688889 14.2183486,20.5688889 14.2559633,20.5303704 C15.0458716,19.9525926 15.8357798,19.3362963 16.6256881,18.72 L18.9954128,16.8711111 C20.5752294,15.6385185 22.1174312,14.4059259 23.659633,13.1733333 C25.2018349,11.9407407 26.7440367,10.6696296 28.2862385,9.39851852 L28.3238532,9.36 C29.1513761,10.1688889 30.3926606,11.362963 31.7091743,12.402963 C31.1449541,12.7111111 30.6183486,13.0192593 30.1293578,13.4044444 C29.3394495,14.0207407 28.587156,14.7140741 27.9100917,15.4844444 C27.2330275,16.2548148 26.593578,17.0251852 26.0293578,17.8725926 C25.6155963,18.4503704 25.2394495,19.0666667 24.8633028,19.7214815 C22.5688073,21.6474074 20.3119266,23.6118519 18.1302752,25.6533333 C18.0550459,25.7303704 18.0550459,25.8459259 18.0926606,25.922963 C18.1678899,26 18.2807339,26.0385185 18.3559633,26 C18.0926606,26.7703704 17.9422018,27.5407407 17.7917431,28.3111111 C17.566055,29.3896296 17.340367,30.4681481 17.1522936,31.5466667 L17.1522936,31.5466667 Z M33.7779817,36.7081481 C33.2513761,37.1318519 32.6119266,37.4014815 31.9348624,37.5555556 C31.2577982,37.7096296 30.5055046,37.7096296 29.7908257,37.6325926 C29.1137615,37.5555556 28.3990826,37.44 27.7220183,37.2474074 C27.646789,36.6311111 27.759633,35.9377778 28.0229358,35.3214815 C28.2862385,35.36 28.5119266,35.36 28.7752294,35.3985185 C28.8880734,35.3985185 28.9633028,35.36 29.0009174,35.2444444 C29.0385321,35.1288889 29.0009174,34.9748148 28.8504587,34.9362963 L28.8504587,34.9362963 C28.6623853,34.8592593 28.5119266,34.8207407 28.3238532,34.7437037 C28.4743119,34.4740741 28.6623853,34.242963 28.8504587,34.0118519 C29.0761468,33.7807407 29.3018349,33.5496296 29.5275229,33.357037 C30.0165138,33.6651852 30.5055046,33.8962963 31.0697248,34.0888889 C31.7091743,34.2814815 32.3862385,34.3585185 33.1009174,34.2814815 C33.7779817,34.2044444 34.4926606,33.8577778 34.9440367,33.28 C35.3577982,32.7792593 35.5458716,32.2014815 35.5834862,31.5851852 C35.6587156,31.8162963 35.6587156,32.0859259 35.6211009,32.317037 C35.5834862,32.6251852 35.5458716,32.9718519 35.4706422,33.28 C35.4330275,33.4725926 35.3954128,33.6651852 35.3577982,33.8577778 C35.1697248,33.9733333 34.9816514,34.0888889 34.793578,34.2044444 C34.5678899,34.3585185 34.3798165,34.5125926 34.1917431,34.8592593 C34.5302752,34.9748148 34.793578,34.9362963 35.0568807,34.8592593 C35.0944954,34.8592593 35.0944954,34.8207407 35.1321101,34.8207407 C35.0944954,34.9362963 35.0944954,35.0133333 35.0568807,35.1288889 C34.7559633,35.7451852 34.3045872,36.2844444 33.7779817,36.7081481 L33.7779817,36.7081481 Z M37.5018349,31.6622222 C37.3137615,32.0859259 37.012844,32.4711111 36.6743119,32.8177778 C36.5238532,32.9718519 36.3357798,33.1259259 36.1853211,33.2414815 C36.1853211,32.8948148 36.1477064,32.5481481 36.0724771,32.2014815 C36.0348624,32.0088889 35.9972477,31.8548148 35.9220183,31.6622222 C35.846789,31.5081481 35.7715596,31.3155556 35.5834862,31.2 L35.5834862,31.2 C35.5458716,31.2 35.5082569,31.2 35.5082569,31.2385185 L35.5082569,31.2385185 C35.2825688,31.8162963 34.906422,32.317037 34.4926606,32.6637037 C34.0788991,33.0103704 33.5522936,33.1644444 33.0256881,33.202963 C32.4990826,33.2414815 31.9348624,33.1259259 31.3706422,32.9718519 C30.806422,32.8177778 30.2422018,32.6251852 29.6779817,32.4325926 L29.6027523,32.3940741 C29.4899083,32.3555556 29.3394495,32.3940741 29.2642202,32.4711111 C28.9633028,32.8562963 28.7376147,33.202963 28.4743119,33.5881481 C28.2862385,33.8962963 28.1357798,34.1659259 27.9853211,34.4740741 C27.3082569,34.2044444 26.6688073,33.9733333 25.9917431,33.7037037 C25.0513761,33.3185185 24.1110092,32.9333333 23.2458716,32.4711111 C22.3431193,32.0474074 21.4779817,31.5466667 20.7256881,30.9688889 C19.9733945,30.3911111 19.2963303,29.7748148 18.9577982,29.0044444 L18.9577982,28.9659259 C18.8825688,28.8118519 18.7697248,28.6962963 18.6192661,28.6192593 C18.6192661,28.5422222 18.6568807,28.4266667 18.6568807,28.3496296 C18.7697248,27.4251852 18.9201835,26.5007407 18.8449541,25.5377778 C21.8917431,23.3422222 24.8633028,21.0311111 27.7972477,18.642963 C27.759633,18.7585185 27.7220183,18.8740741 27.6844037,18.9896296 C27.4963303,19.5674074 27.4211009,20.2222222 27.4211009,20.877037 C27.4587156,21.5318519 27.646789,22.2637037 28.0605505,22.88 C28.4743119,23.4962963 29.0385321,23.9585185 29.6027523,24.2281481 C29.9036697,24.3822222 30.2045872,24.4977778 30.4678899,24.5748148 C30.6183486,24.6133333 30.7688073,24.6518519 30.9192661,24.6903704 L31.2954128,24.7674074 C32.2733945,25.037037 33.2137615,25.4222222 34.0788991,25.922963 C34.9440367,26.4237037 35.7715596,27.04 36.4486239,27.7333333 C37.1256881,28.4266667 37.6522936,29.3125926 37.7275229,30.1985185 C37.7651376,30.8148148 37.6899083,31.277037 37.5018349,31.6622222 L37.5018349,31.6622222 Z" id="Shape"></path>
                <path d="M12.5256881,40.5214815 C12.2247706,40.9451852 11.9990826,41.4459259 11.8862385,41.9466667 C11.8110092,42.2162963 11.7733945,42.4859259 11.7733945,42.717037 L11.7357798,43.4874074 C11.6605505,44.4888889 11.6981651,45.5674074 11.9990826,46.5688889 C12.3,47.5703704 12.7137615,48.4948148 13.2027523,49.3807407 C13.0522936,48.88 12.8642202,48.4177778 12.7137615,47.9555556 C12.5633028,47.4933333 12.412844,46.9925926 12.3,46.4918519 C12.0743119,45.5288889 12.0743119,44.5274074 12.1119266,43.5259259 L12.1495413,42.7555556 C12.1495413,42.5244444 12.187156,42.2548148 12.2247706,42.0237037 C12.3376147,41.5614815 12.5256881,41.0992593 12.7513761,40.6755556 C13.0146789,40.2518519 13.3155963,39.8666667 13.6917431,39.52 C14.0302752,39.1733333 14.4440367,38.8651852 14.8954128,38.6340741 C13.9550459,39.0192593 13.0899083,39.6355556 12.5256881,40.5214815 L12.5256881,40.5214815 Z" id="Shape"></path>
            </g>
        </g>
    </g>
</svg>