<?xml version="1.0" encoding="UTF-8" standalone="no"?>
<svg width="50px" height="50px" viewBox="0 0 50 50" version="1.1" xmlns="http://www.w3.org/2000/svg" xmlns:xlink="http://www.w3.org/1999/xlink">
    <defs></defs>
    <g id="Page-1" stroke="none" stroke-width="1" fill="none" fill-rule="evenodd">
        <g id="Group">
            <path d="M25,0.0416666667 C11.2166667,0.0416666667 0.0424418605,11.2149225 0.0424418605,25 C0.0424418605,38.7823643 11.2166667,49.9583333 25,49.9583333 C38.7833333,49.9583333 49.9575581,38.7823643 49.9575581,25 C49.9575581,11.2149225 38.7833333,0.0416666667 25,0.0416666667" id="Fill-1" fill="#B42F32"></path>
            <path d="M18.5645349,26.6418605 L17.5594961,26.6418605 L17.5594961,33.7282946 L17.5544574,33.7282946 C17.8930233,34.1263566 18.0986434,34.6406977 18.0986434,35.202907 C18.0986434,35.9027132 17.7817829,36.529845 17.2841085,36.9486434 L16.6637597,36.328876 C17.0054264,36.0722868 17.2265504,35.6635659 17.2265504,35.202907 C17.2265504,34.4253876 16.596124,33.7947674 15.8184109,33.7947674 C15.0406977,33.7947674 14.4102713,34.4253876 14.4102713,35.202907 C14.4102713,35.6596899 14.627907,36.0658915 14.9653101,36.3232558 L14.3455426,36.9420543 C13.8521318,36.5234496 13.5381783,35.8994186 13.5381783,35.202907 C13.5381783,34.6401163 13.744186,34.1253876 14.0833333,33.7273256 L14.0833333,22.678876 C14.1054264,22.2532946 14.448062,21.9120155 14.8717054,21.9120155 L35.1282946,21.9145349 C35.551938,21.9145349 35.8945736,22.2560078 35.9166667,22.6813953 L35.9166667,33.729845 C36.255814,34.127907 36.4618217,34.6426357 36.4618217,35.2054264 C36.4618217,35.9015504 36.1478682,36.5261628 35.6544574,36.9447674 L35.0346899,36.325969 C35.372093,36.0686047 35.5897287,35.6624031 35.5897287,35.2054264 C35.5897287,34.427907 34.9593023,33.7974806 34.1815891,33.7974806 C33.403876,33.7974806 32.7734496,34.427907 32.7734496,35.2054264 C32.7734496,35.6658915 32.9945736,36.0746124 33.3362403,36.3315891 L32.7158915,36.9511628 C32.2182171,36.5325581 31.9013566,35.9054264 31.9013566,35.2054264 C31.9013566,34.6434109 32.1069767,34.1290698 32.4455426,33.730814 L32.4405039,33.730814 L32.4405039,26.6443798 L31.4354651,26.6443798 L31.4354651,41.6027132 L32.1087209,41.9862403 L32.1087209,43.2023256 L25.3306202,43.2023256 L25.3306202,41.9862403 L26.0052326,41.6027132 L26.0062016,41.6027132 L26.0062016,37.0643411 L23.9928295,37.0643411 L23.9928295,41.6027132 L24.6656977,41.9862403 L24.6656977,43.2023256 L17.9017442,43.2137597 L17.9017442,41.9862403 L18.5635659,41.6027132 L18.5645349,26.6418605" id="Fill-2" fill="#FFFFFF"></path>
            <path d="M25.003876,10.4360465 C26.4100775,10.4360465 27.6841085,10.9372093 28.4693798,11.6912791 L29.0901163,10.8067829 C28.1094961,9.92829457 26.6428295,9.37015504 25.003876,9.37015504 C23.3604651,9.37015504 21.8903101,9.93100775 20.9098837,10.8135659 L21.5300388,11.699031 C22.3147287,10.9405039 23.5926357,10.4360465 25.003876,10.4360465" id="Fill-3" fill="#FFFFFF"></path>
            <path d="M25.0430233,8.17616279 C26.579845,8.17616279 28.0131783,8.62015504 29.0790698,9.42635659 C29.2957364,9.59031008 29.4906977,9.76472868 29.6631783,9.94786822 L30.2848837,9.06007752 C29.0748062,7.87422481 27.176938,7.11027132 25.0430233,7.11027132 C22.8577519,7.11027132 20.920155,7.91124031 19.7151163,9.14631783 L20.3399225,10.0387597 C20.5317829,9.82228682 20.7546512,9.61705426 21.0067829,9.42635659 C22.0726744,8.62015504 23.5062016,8.17616279 25.0430233,8.17616279" id="Fill-4" fill="#FFFFFF"></path>
            <path d="M25.0036822,6.00813953 C27.4428295,6.00813953 29.599031,6.89689922 30.8804264,8.24806202 L31.4976744,7.36841085 C30.0032946,5.89341085 27.6501938,4.94224806 25.0036822,4.94224806 C22.3525194,4.94205426 19.9965116,5.89612403 18.5023256,7.3753876 L19.1189922,8.25620155 C20.3994186,6.9003876 22.5596899,6.00813953 25.0036822,6.00813953" id="Fill-5" fill="#FFFFFF"></path>
            <path d="M23.0494186,16.4486434 C23.0494186,16.8180233 22.7496124,17.1186047 22.3781008,17.1186047 C22.0093023,17.1186047 21.7087209,16.8180233 21.7087209,16.4486434 C21.7087209,16.075969 22.0093023,15.776938 22.3781008,15.776938 C22.7496124,15.776938 23.0494186,16.075969 23.0494186,16.4486434" id="Fill-6" fill="#FFFFFF"></path>
            <path d="M27.6387597,17.7585271 C26.9135659,17.7585271 26.325969,17.170155 26.325969,16.4486434 C26.325969,15.7238372 26.9135659,15.1372093 27.6387597,15.1372093 C28.3625969,15.1372093 28.9492248,15.7238372 28.9492248,16.4486434 C28.9492248,17.170155 28.3625969,17.7585271 27.6387597,17.7585271 L27.6387597,17.7585271 Z M22.3781008,17.7585271 C21.6554264,17.7585271 21.0687984,17.170155 21.0687984,16.4486434 C21.0687984,15.7238372 21.6554264,15.1372093 22.3781008,15.1372093 C23.1015504,15.1372093 23.6883721,15.7238372 23.6883721,16.4486434 C23.6883721,17.170155 23.1015504,17.7585271 22.3781008,17.7585271 L22.3781008,17.7585271 Z M30.146124,12.8362403 L19.8540698,12.8362403 C19.4321705,12.8362403 19.0868217,13.1786822 19.0868217,13.6025194 L19.0868217,20.3166667 C19.0868217,20.7377907 19.4321705,21.0823643 19.8540698,21.0823643 L30.146124,21.0823643 C30.5695736,21.0823643 30.9131783,20.7377907 30.9131783,20.3166667 L30.9131783,13.6025194 C30.9131783,13.1786822 30.5695736,12.8362403 30.146124,12.8362403 L30.146124,12.8362403 Z" id="Fill-7" fill="#FFFFFF"></path>
            <path d="M28.3118217,16.4486434 C28.3118217,16.8180233 28.0077519,17.1186047 27.6387597,17.1186047 C27.2684109,17.1186047 26.9684109,16.8180233 26.9684109,16.4486434 C26.9684109,16.075969 27.2684109,15.776938 27.6387597,15.776938 C28.0077519,15.776938 28.3118217,16.075969 28.3118217,16.4486434" id="Fill-8" fill="#FFFFFF"></path>
        </g>
    </g>
</svg>