<?xml version="1.0" encoding="UTF-8" standalone="no"?>
<svg width="100px" height="100px" viewBox="0 0 100 100" version="1.1" xmlns="http://www.w3.org/2000/svg" xmlns:xlink="http://www.w3.org/1999/xlink">
    <defs></defs>
    <g id="Page-1" stroke="none" stroke-width="1" fill="none" fill-rule="evenodd">
        <rect id="Rectangle-1" fill="#FFFFFF" x="0" y="0" width="100" height="100"></rect>
        <g id="bitters-logo" transform="translate(26.000000, 29.000000)">
            <g id="Group" transform="translate(22.518519, 0.000000)">
                <path d="M12.8758519,27.1748056 C7.86192593,27.1748056 3.78251852,23.0635278 3.78251852,18.0104306 C3.78251852,12.6909722 9.28414815,7.35658333 12.8853333,4.60936111 C16.4782222,7.33090278 21.9697778,12.6378194 21.9697778,18.0104306 C21.9697778,23.0635278 17.8897778,27.1748056 12.8758519,27.1748056 L12.8758519,27.1748056 Z" id="Shape" fill="#FFFFFF"></path>
                <path d="M12.8835556,9.25276389 C13.3605926,9.68156944 13.8536296,10.1503889 14.3413333,10.6538472 C16.9677037,13.3616528 18.4136296,15.9745 18.4136296,18.0104306 C18.4136296,21.0879167 15.9294815,23.5914722 12.8758519,23.5914722 C9.82222222,23.5914722 7.33807407,21.0879167 7.33807407,18.0104306 C7.33807407,15.2936667 9.99940741,11.8871111 12.8835556,9.25276389 L12.8835556,9.25276389 Z M12.8758519,0.252027778 C12.8758519,0.252027778 0.226962963,8.18851389 0.226962963,18.0104306 C0.226962963,25.0510833 5.89037037,30.7581389 12.8758519,30.7581389 C19.8613333,30.7581389 25.5247407,25.0504861 25.5247407,18.0104306 C25.5253333,8.09475 12.8758519,0.252027778 12.8758519,0.252027778 L12.8758519,0.252027778 L12.8758519,0.252027778 Z" id="Shape" fill="#A8BA6E"></path>
            </g>
            <g id="Group">
                <path d="M12.4983704,27.1748056 C7.48444444,27.1748056 3.40444444,23.0635278 3.40444444,18.0104306 C3.40444444,14.1571528 6.28266667,10.4245139 8.69748148,7.97231944 C10.082963,6.56526389 11.4637037,5.42038889 12.5167407,4.61593056 C16.1096296,7.33986111 21.5917037,12.642 21.5917037,18.0104306 C21.5917037,23.0635278 17.5122963,27.1748056 12.4983704,27.1748056 L12.4983704,27.1748056 Z" id="Shape" fill="#FFFFFF"></path>
                <path d="M12.5060741,9.25276389 C12.9831111,9.68156944 13.4761481,10.1503889 13.9638519,10.6538472 C16.5902222,13.3616528 18.0361481,15.9745 18.0361481,18.0104306 C18.0361481,21.0879167 15.552,23.5914722 12.4983704,23.5914722 C9.44474074,23.5914722 6.96059259,21.0879167 6.96059259,18.0104306 C6.96,15.2936667 9.62133333,11.8871111 12.5060741,9.25276389 L12.5060741,9.25276389 Z M12.4983704,0.252027778 C12.4983704,0.252027778 -0.150518519,8.18851389 -0.150518519,18.0104306 C-0.150518519,25.0510833 5.51288889,30.7581389 12.4983704,30.7581389 C19.4838519,30.7581389 25.1472593,25.0504861 25.1472593,18.0104306 C25.1472593,8.09475 12.4983704,0.252027778 12.4983704,0.252027778 L12.4983704,0.252027778 L12.4983704,0.252027778 Z" id="Shape" fill="#F1605A"></path>
            </g>
            <g id="Group" transform="translate(11.259259, 12.541667)">
                <path d="M12.6714074,27.0601389 C7.65748148,27.0601389 3.57807407,22.9488611 3.57807407,17.8951667 C3.57807407,12.5757083 9.0797037,7.24131944 12.6808889,4.4935 C16.2737778,7.21504167 21.7647407,12.5225556 21.7647407,17.8951667 C21.7647407,22.9488611 17.6853333,27.0601389 12.6714074,27.0601389 L12.6714074,27.0601389 Z" id="Shape" fill="#FFFFFF"></path>
                <path d="M12.6791111,9.1375 C13.1561481,9.56630556 13.6491852,10.035125 14.1368889,10.5385833 C16.7632593,13.2463889 18.2091852,15.8592361 18.2091852,17.8951667 C18.2091852,20.9726528 15.725037,23.4762083 12.6714074,23.4762083 C9.61777778,23.4762083 7.13362963,20.9726528 7.13362963,17.8951667 C7.13303704,15.1784028 9.79437037,11.7718472 12.6791111,9.1375 L12.6791111,9.1375 Z M12.6714074,0.136763889 C12.6714074,0.136763889 0.0225185185,8.07325 0.0225185185,17.8951667 C0.0225185185,24.9358194 5.68592593,30.642875 12.6714074,30.642875 C19.6568889,30.642875 25.3202963,24.9352222 25.3202963,17.8951667 C25.3202963,7.97948611 12.6714074,0.136763889 12.6714074,0.136763889 L12.6714074,0.136763889 L12.6714074,0.136763889 Z" id="Shape" fill="#FFC549"></path>
            </g>
        </g>
    </g>
</svg>