<?xml version="1.0" encoding="UTF-8" standalone="no"?>
<svg width="100px" height="50px" viewBox="0 0 100 50" version="1.1" xmlns="http://www.w3.org/2000/svg" xmlns:xlink="http://www.w3.org/1999/xlink">
    <defs></defs>
    <g id="Page-1" stroke="none" stroke-width="1" fill="none" fill-rule="evenodd">
        <g id="Group" transform="translate(50.500000, 25.000000) scale(1, -1) translate(-50.500000, -25.000000) translate(26.000000, 6.000000)" fill="#555555">
            <path d="M26.2547297,37.4713043 C25.3277027,37.24 24.0033784,36.7113043 23.3081081,36.3147826 C22.5797297,35.9182609 21.3878378,35.2243478 20.5932432,34.7617391 C18.7391892,33.7043478 15.5939189,33.4069565 14.7993243,34.2 C14.0709459,34.9269565 14.1040541,35.2573913 14.9317568,35.72 C15.3952703,35.9513043 16.3554054,36.0173913 17.5804054,35.8852174 C19.1695946,35.6869565 19.5337838,35.7530435 19.5337838,36.1495652 C19.5337838,36.7443478 17.8452703,37.3391304 16.6533784,37.1408696 C14.0047297,36.7443478 13.6074324,36.6121739 13.2763514,36.2156522 C12.4817568,35.2573913 12.5810811,34.2991304 13.5743243,33.373913 C15.7594595,31.3252174 19.5668919,31.3582609 23.9702703,33.506087 C27.6452703,35.2904348 29.4,35.786087 31.8168919,35.7530435 C33.9689189,35.7530435 35.0945946,35.2904348 35.0945946,34.3982609 C35.0945946,33.0104348 30.8567568,32.4817391 29.4993243,33.7373913 C28.8040541,34.3652174 28.7378378,34.3982609 27.9763514,33.9026087 C26.9831081,33.2747826 26.95,32.9773913 27.7445946,32.3165217 C28.5391892,31.5895652 29.4993243,31.3582609 31.5851351,31.3252174 C35.1277027,31.2591304 37.7432432,32.5147826 37.7432432,34.3321739 C37.7432432,37.24 31.7837838,38.8921739 26.2547297,37.4713043 L26.2547297,37.4713043 Z" id="Shape"></path>
            <path d="M4.46959459,34.4643478 C2.0527027,33.2086957 1.68851351,31.986087 3.31081081,30.6313043 C4.63513514,29.5078261 7.11824324,28.6156522 11.2567568,27.7895652 C16.1567568,26.8313043 18.7722973,26.6330435 26.3209459,26.666087 C35.7236486,26.6991304 42.5108108,27.7565217 46.6493243,29.8052174 C49.1986486,31.093913 49.4635135,32.9113043 47.2783784,34.2 C46.3182432,34.7617391 46.2851351,34.7617391 46.4837838,34.133913 C46.7817568,33.1756522 46.4175676,32.4817391 45.1925676,31.7217391 C44.0006757,30.9947826 39.9945946,29.8713043 37.5114865,29.573913 C36.6175676,29.4747826 35.5581081,29.3095652 35.0945946,29.2104348 C33.3398649,28.7808696 19.3682432,28.8469565 16.0574324,29.2765217 C10.5283784,30.0034783 6.72094595,31.226087 5.62837838,32.6469565 C4.99932432,33.4069565 4.99932432,33.5391304 5.46283784,34.266087 C6.05878378,35.1582609 5.82702703,35.1913043 4.46959459,34.4643478 L4.46959459,34.4643478 Z" id="Shape"></path>
            <path d="M2.78108108,27.1947826 C2.88040541,26.4347826 3.2777027,24.6834783 3.675,23.3286957 L4.40337838,20.8504348 L2.71486486,19.0330435 C-0.927027027,15.0347826 -0.927027027,9.91304348 2.71486486,6.77391304 C4.86689189,4.95652174 8.47567568,4.56 10.7932432,5.88173913 C11.3560811,6.21217391 11.322973,6.24521739 10.4952703,6.27826087 C8.70743243,6.27826087 5.92635135,8.19478261 4.60202703,10.2434783 C3.90675676,11.3008696 3.37702703,13.746087 3.54256757,15.0017391 C3.70810811,16.0921739 4.86689189,18.5043478 5.23108108,18.5043478 C5.36351351,18.5043478 5.79391892,17.7773913 6.19121622,16.9182609 C6.62162162,16.026087 8.07837838,13.68 9.50202703,11.6973913 C11.7864865,8.49217391 13.5412162,5.18782609 13.5743243,4.06434783 C13.5743243,3.23826087 16.1567568,1.61913043 18.6398649,0.826086957 C20.825,0.132173913 21.8513514,0 25.5594595,0 C33.5716216,0 37.3128378,1.71826087 38.5047297,5.94782609 C38.8027027,6.93913043 39.6966216,8.6573913 40.4912162,9.74782609 C44.5635135,15.3652174 45.3581081,16.72 46.7817568,20.6521739 C47.2452703,21.9408696 47.8412162,24.0226087 48.1722973,25.2782609 C48.4702703,26.5669565 48.7682432,27.7895652 48.8344595,27.9878261 C48.9337838,28.2191304 48.4371622,28.053913 47.7418919,27.5913043 C45.9540541,26.4017391 43.1067568,25.4765217 39.5310811,24.9147826 C38.8689189,24.8156522 38.0081081,24.6504348 37.6108108,24.5843478 C34.4324324,23.9565217 21.3216216,23.6921739 16.7195946,24.2208696 C10.1310811,24.9478261 5.16486486,26.3026087 3.34391892,27.8886957 L2.58243243,28.5826087 L2.78108108,27.1947826 L2.78108108,27.1947826 Z" id="Shape"></path>
        </g>
    </g>
</svg>