<?xml version="1.0" encoding="UTF-8" standalone="no"?>
<svg width="70px" height="70px" viewBox="0 0 70 70" version="1.1" xmlns="http://www.w3.org/2000/svg" xmlns:xlink="http://www.w3.org/1999/xlink">
    <defs></defs>
    <g id="Page-1" stroke="none" stroke-width="1" fill="none" fill-rule="evenodd">
        <g transform="translate(0.000000, 5.000000)" id="ruby">
            <g>
                <path d="M70,16.9999992 L35.0000014,64.9655464 L-1.65700696e-09,16.9999992 L11.73375,0.0344535519 L58.26625,0.0344535519 L70,16.9999992 Z" id="Shape" fill="#CD6B3D"></path>
                <path d="M35,0.0344535519 C39.2,5.60989071 43.4028,11.1831967 47.60245,16.7589891 L22.39755,16.7589891 C26.58635,11.2002459 30.7748,5.64114754 34.96395,0.0824043716 L35,0.0344535519 L35,0.0344535519 Z" id="Shape" fill="#ED8E42"></path>
                <path d="M11.73025,0.0344535519 C15.4728,5.84964481 18.83945,11.1210383 22.39755,16.7589891 L0.10045,16.7589891 C3.766,11.4875956 7.4312,6.21655738 11.09675,0.945163934 L11.73025,0.0344535519 L11.73025,0.0344535519 Z" id="Shape" fill="#BD593A"></path>
                <path d="M35.0000002,65.0000017 L17.5504,16.7589891 L52.4496,16.7589891 L35.0000002,65.0000017 Z" id="Shape" fill="#CD6B3D"></path>
                <path d="M35,64.9655464 L0.10045,16.7589891 L22.3975491,16.7589891 L35,64.9655464 Z" id="Shape" fill="#ED8E42"></path>
                <path d="M35,64.9655464 L47.60245,16.7589891 L69.89955,16.7589891 L35,64.9655464 Z" id="Shape" fill="#AD4838"></path>
                <path d="M58.26975,0.0344535519 C54.43095,5.84964481 51.2568,11.1210383 47.60245,16.7589891 L69.89955,16.7589891 C66.234,11.4879508 62.5688,6.21655738 58.90325,0.945163934 L58.26975,0.0344535519 L58.26975,0.0344535519 Z" id="Shape" fill="#BD593A"></path>
            </g>
        </g>
        <path d="M61.7254809,10.9855241 C58.5261628,10.9855241 55.3268447,14.2401426 55.3268447,14.2401426 C55.3268447,14.2401426 58.5814632,11.0408245 58.5814632,7.84150635 C58.5814632,4.64218825 55.3268447,1.44287014 55.3268447,1.44287014 C55.3268447,1.44287014 58.5261628,4.69748856 61.7254809,4.69748856 C64.9247991,4.69748856 68.1241172,1.44287014 68.1241172,1.44287014 C68.1241172,1.44287014 64.8694987,4.64218825 64.8694987,7.84150635 C64.8694987,11.0408245 68.1241172,14.2401426 68.1241172,14.2401426 C68.1241172,14.2401426 64.9247991,10.9855241 61.7254809,10.9855241 Z" id="Star-1" fill="#FFFFFF" transform="translate(61.725481, 7.841506) rotate(-15.000000) translate(-61.725481, -7.841506) "></path>
    </g>
</svg>