<?xml version="1.0" encoding="UTF-8" standalone="no"?>
<svg width="70px" height="65px" viewBox="0 0 70 65" version="1.1" xmlns="http://www.w3.org/2000/svg" xmlns:xlink="http://www.w3.org/1999/xlink">
    <defs></defs>
    <g id="Page-1" stroke="none" stroke-width="1" fill="none" fill-rule="evenodd">
        <g id="ruby">
            <path d="M58.26625,0.0344535519 L69.89955,16.7589891 C58.2659,32.8274863 46.63365,48.8970492 35,64.9655464 C23.3667,48.8970492 11.7341,32.8274863 0.10045,16.7589891 L11.73375,0.0344535519 L58.26625,0.0344535519 Z" id="Shape" fill="#CD6B3D"></path>
            <path d="M35,0.0344535519 C39.2,5.60989071 43.4028,11.1831967 47.60245,16.7589891 L22.39755,16.7589891 C26.58635,11.2002459 30.7748,5.64114754 34.96395,0.0824043716 L35,0.0344535519 Z" id="Shape" fill="#ED8E42"></path>
            <path d="M11.73025,0.0344535519 C15.4728,5.84964481 18.83945,11.1210383 22.39755,16.7589891 L0.10045,16.7589891 C3.766,11.4875956 7.4312,6.21655738 11.09675,0.945163934 L11.73025,0.0344535519 Z" id="Shape" fill="#BD593A"></path>
            <path d="M52.4496,40.8622678 L35,64.9655464 L17.5504,40.8622678 L17.5504,16.7589891 L52.4496,16.7589891 L52.4496,40.8622678 Z" id="Shape" fill="#CD6B3D"></path>
            <path d="M35,64.9655464 C23.3667,48.8970492 11.7341,32.8274863 0.10045,16.7589891 L22.39755,16.7589891 C26.59825,32.8278415 30.7993,48.896694 35,64.9655464 Z" id="Shape" fill="#ED8E42"></path>
            <path d="M35,64.9655464 C39.20245,48.8970492 43.39895,32.8271311 47.60245,16.7589891 L69.89955,16.7589891 C58.2659,32.8274863 46.63365,48.8970492 35,64.9655464 Z" id="Shape" fill="#AD4838"></path>
            <path d="M58.26975,0.0344535519 C54.43095,5.84964481 51.2568,11.1210383 47.60245,16.7589891 L69.89955,16.7589891 C66.234,11.4879508 62.5688,6.21655738 58.90325,0.945163934 L58.26975,0.0344535519 Z" id="Shape" fill="#BD593A"></path>
        </g>
    </g>
</svg>