<?xml version="1.0" encoding="UTF-8" standalone="no"?>
<svg width="100px" height="100px" viewBox="0 0 100 100" version="1.1" xmlns="http://www.w3.org/2000/svg" xmlns:xlink="http://www.w3.org/1999/xlink">
    <defs></defs>
    <g id="Page-1" stroke="none" stroke-width="1" fill="none" fill-rule="evenodd">
        <g id="Imported-Layers" transform="translate(30.000000, 0.000000)">
            <path d="M1,33 L4,64 L36,58 L39,32 L1,33 Z" id="Rectangle-1" fill="#FFFFFF"></path>
            <path d="M20.0123256,26.8955296 C10.7562791,26.8955296 2.89790698,25.4725141 0.100465116,24.1252931 L0.0774418605,24.1252931 L2.1727907,46.2219177 C2.28395349,45.8413085 2.40744186,45.4611671 2.5444186,45.0824293 C2.8244186,44.3062391 3.14883721,43.5473599 3.51674419,42.8060257 C3.88488372,42.0649254 4.2855814,41.3640617 4.71883721,40.7043702 C5.15186047,40.0446787 5.61302326,39.4371542 6.10162791,38.8820308 C6.59046512,38.3271414 7.09186047,37.8496838 7.60674419,37.449892 C8.12139535,37.0503342 8.64093023,36.7377995 9.16534884,36.5125219 C9.69,36.2874781 10.2095349,36.1749563 10.724186,36.1749563 C11.3169767,36.1749563 11.8904651,36.3380077 12.444186,36.6638766 C12.997907,36.9899794 13.5155814,37.5179666 13.9981395,38.2476041 C14.1088372,38.4106555 14.1788372,38.5755784 14.207907,38.7423728 C14.2374419,38.909401 14.2518605,39.0666041 14.2518605,39.213982 C14.2518605,39.5632442 14.1688372,39.8390514 14.0027907,40.0407018 C13.8367442,40.2425861 13.6395349,40.3434113 13.4116279,40.3434113 C13.2030233,40.3434113 13.0093023,40.2327609 12.83,40.0116941 C12.6506977,39.7906272 12.4504651,39.4743496 12.2288372,39.0626272 C12.0204651,38.6899717 11.7906977,38.4204807 11.54,38.2534524 C11.2890698,38.0866581 11.0172093,38.003144 10.7239535,38.003144 C10.267907,38.003144 9.78093023,38.1933316 9.26302326,38.5737069 C8.74488372,38.9540823 8.23186047,39.4568046 7.72395349,40.0816401 C7.2155814,40.7064756 6.72860465,41.4206735 6.2627907,42.224 C5.79697674,43.0273265 5.38488372,43.8503033 5.02651163,44.6924627 C4.66813953,45.5353239 4.38325581,46.3655527 4.17162791,47.1843188 C3.95976744,48.0030848 3.85395349,48.7390386 3.85395349,49.3907763 C3.85395349,49.6085681 3.86860465,49.8319743 3.89767442,50.0600591 C3.9272093,50.2890797 3.98232558,50.4965784 4.06395349,50.6832571 C4.14534884,50.8697018 4.25604651,51.0224602 4.39627907,51.1429357 C4.53651163,51.2638792 4.71395349,51.3232982 4.92883721,51.3232982 C5.17,51.3232982 5.44348837,51.2418895 5.74976744,51.078838 C6.05581395,50.9164884 6.37372093,50.7026735 6.70255814,50.4390308 C7.03162791,50.1746864 7.36232558,49.8761877 7.69465116,49.5421311 C8.0272093,49.2083085 8.33651163,48.8709769 8.62302326,48.5292005 C8.90953488,48.187892 9.16372093,47.8599177 9.38511628,47.5455116 C9.60674419,47.2308715 9.7727907,46.9571697 9.88372093,46.7241722 L10.7925581,43.98809 C10.9032558,43.6933342 11.0481395,43.4837301 11.2274419,43.3592776 C11.4065116,43.2352931 11.5906977,43.1730668 11.7797674,43.1730668 C11.8706977,43.1730668 11.9618605,43.1887404 12.0532558,43.2196195 C12.1446512,43.2507326 12.225814,43.2991568 12.2976744,43.365126 C12.3695349,43.4310951 12.4262791,43.5164807 12.4686047,43.6212828 C12.5109302,43.7260848 12.5318605,43.8484319 12.5318605,43.987856 C12.5318605,44.3605116 12.4993023,44.7095398 12.434186,45.0358766 C12.3693023,45.3622134 12.2860465,45.6801285 12.1851163,45.9910257 C12.0839535,46.3009871 11.9716279,46.6135219 11.847907,46.928162 C11.724186,47.2425681 11.6034884,47.5705424 11.4862791,47.9123188 C11.4604651,47.9511517 11.4132558,48.0732648 11.3446512,48.2784242 C11.2762791,48.4845193 11.1934884,48.7423136 11.0955814,49.0532108 C10.997907,49.363874 10.8918605,49.7110308 10.777907,50.095383 C10.6639535,50.4797352 10.5467442,50.8713393 10.4262791,51.2711311 C10.3053488,51.6709229 10.19,52.0632288 10.0793023,52.4471131 C9.96860465,52.8312314 9.86906977,53.1786221 9.78139535,53.4890514 C9.69325581,53.7992468 9.62023256,54.0593805 9.56139535,54.2689846 C9.5027907,54.4785887 9.46697674,54.6028072 9.45395349,54.642108 C9.42116279,54.7656247 9.36906977,54.9038792 9.29767442,55.0554679 C9.22581395,55.2065887 9.14116279,55.3506915 9.04325581,55.4863728 C8.9455814,55.622054 8.83813953,55.7348098 8.72069767,55.8237044 C8.60348837,55.9130668 8.48302326,55.9575141 8.35906977,55.9575141 C8.15069767,55.9575141 7.99906977,55.8873342 7.90488372,55.74791 C7.81023256,55.608018 7.76325581,55.3520951 7.76325581,54.9794396 L7.76325581,54.8166221 C7.76325581,54.7623496 7.76651163,54.7038663 7.7727907,54.642108 C7.77906977,54.5178895 7.82813953,54.284892 7.91953488,53.9431157 C8.01093023,53.6018072 8.11976744,53.2160514 8.24697674,52.7851465 C8.37395349,52.3540077 8.51093023,51.9078972 8.65744186,51.4456452 C8.80395349,50.9833933 8.93581395,50.5707352 9.05325581,50.2055656 C8.70767442,50.5936607 8.33325581,50.9801183 7.92930233,51.3640026 C7.52534884,51.7483548 7.11139535,52.0936401 6.68813953,52.4005604 C6.26465116,52.7074807 5.83790698,52.9575553 5.40790698,53.1517198 C4.97790698,53.3454165 4.56418605,53.4427326 4.16674419,53.4427326 C3.71069767,53.4427326 3.31813953,53.3414396 2.98906977,53.1397892 C2.92953488,53.1032956 2.87372093,53.0621234 2.81790698,53.0211851 L4.14930233,67.0618535 L4.92418605,68.3087172 C7.19883721,69.779455 13.0037209,70.8253702 19.8237209,70.8302828 C26.0360465,70.8253702 31.4048837,69.9572442 34.0323256,68.6907301 L35.0230233,67.0618535 L36.9348837,50.3732956 C36.7767442,50.519036 36.6232558,50.6612674 36.4760465,50.7992879 C35.9265116,51.3137069 35.41,51.7539692 34.9244186,52.1228817 C34.4393023,52.4913265 33.9651163,52.7771928 33.5030233,52.9783753 C33.0402326,53.1802596 32.5451163,53.2815527 32.0169767,53.2815527 C31.5218605,53.2815527 31.1393023,53.1725398 30.8686047,52.954982 C30.5983721,52.7376581 30.4630233,52.4391594 30.4630233,52.0585501 L30.4630233,51.9712931 C30.4630233,51.9443907 30.4662791,51.9107044 30.4730233,51.8721054 C30.4988372,51.6395758 30.6002326,51.3710206 30.7760465,51.068545 C30.9518605,50.7656015 31.1634884,50.4511954 31.4109302,50.1255604 C31.6583721,49.7992237 31.9223256,49.4693779 32.2025581,49.1357892 C32.4827907,48.8022005 32.7413953,48.4863907 32.9797674,48.1864884 C33.2172093,47.8884576 33.4144186,47.6147558 33.5706977,47.3658509 C33.7274419,47.1174139 33.8055814,46.9157635 33.8055814,46.7604319 C33.8055814,46.6675604 33.7727907,46.5936375 33.707907,46.5388972 C33.6425581,46.4853265 33.5348837,46.4574884 33.3853488,46.4574884 C33.1246512,46.4574884 32.855814,46.525563 32.5790698,46.6612442 C32.302093,46.7969254 32.0281395,46.9796272 31.757907,47.2086478 C31.4876744,47.4376684 31.2237209,47.6999075 30.9662791,47.9944293 C30.7093023,48.289653 30.467907,48.5961054 30.2432558,48.9142545 C30.0183721,49.2326375 29.8134884,49.552892 29.627907,49.875018 C29.4423256,50.197144 29.2839535,50.4940051 29.1537209,50.7656015 L28.9874419,51.1265604 C28.9153488,51.281892 28.8372093,51.456874 28.7527907,51.6505707 C28.6681395,51.8447352 28.5783721,52.044982 28.484186,52.2499075 C28.3897674,52.4560026 28.3034884,52.6501671 28.2253488,52.8321671 L28.015814,53.3213213 C27.9532558,53.4644884 27.9095349,53.56391 27.8837209,53.6184165 C27.8509302,53.6883625 27.7974419,53.8198329 27.7225581,54.0139974 C27.6476744,54.208162 27.5613953,54.4353111 27.4637209,54.6952108 L27.155814,55.5163162 C27.0486047,55.8033522 26.9474419,56.0751825 26.8527907,56.3311054 C26.7583721,56.5872622 26.6751163,56.8125398 26.604186,57.0067044 C26.532093,57.200401 26.4862791,57.3325733 26.4667442,57.4020514 C26.402093,57.6039357 26.3253488,57.7938895 26.2376744,57.9728483 C26.1495349,58.1511054 26.0488372,58.3083085 25.9344186,58.4444576 C25.8206977,58.5801388 25.69,58.6889177 25.5432558,58.7703265 C25.3965116,58.852437 25.232093,58.8926735 25.05,58.8926735 C24.8151163,58.8926735 24.6216279,58.8360617 24.4681395,58.7235398 C24.3155814,58.6112519 24.2388372,58.3955656 24.2388372,58.0774165 C24.2388372,57.9220848 24.2583721,57.7627763 24.2974419,57.5999589 C24.3367442,57.4369075 24.385814,57.2754936 24.4444186,57.1168869 C24.5030233,56.9571105 24.5634884,56.8022468 24.6248837,56.6513599 C24.6869767,56.5000051 24.744186,56.3540308 24.7955814,56.2148406 C25.1476744,55.4386504 25.5060465,54.6601208 25.8706977,53.8801877 C26.2353488,53.1002545 26.5855814,52.3280411 26.9213953,51.5633136 C26.9916279,51.4037712 27.0553488,51.2475039 27.1234884,51.0891311 L27.0630233,51.1499537 C26.6393023,51.56191 26.2176744,51.9247404 25.7976744,52.2386787 C25.3769767,52.5530848 24.96,52.8033933 24.5467442,52.989838 C24.1332558,53.1758149 23.7304651,53.2689203 23.3397674,53.2689203 C23.0727907,53.2689203 22.8497674,53.2263445 22.6706977,53.1409589 C22.4913953,53.0555733 22.3481395,52.9390746 22.2404651,52.7919306 C22.1327907,52.6443188 22.0560465,52.4698046 22.0106977,52.2679203 C21.9953488,52.19891 21.985814,52.1266247 21.975814,52.0550411 C21.8613953,52.1446375 21.7460465,52.2318946 21.6297674,52.314473 C21.2262791,52.601509 20.8286047,52.832635 20.4374419,53.0071491 C20.0467442,53.1816632 19.6948837,53.2689203 19.3823256,53.2689203 C19.0693023,53.2689203 18.8153488,53.1643522 18.6197674,52.9545141 C18.4244186,52.745144 18.3267442,52.387928 18.3267442,51.8835681 C18.3267442,51.5263522 18.3790698,51.1108869 18.4830233,50.6376401 C18.3134884,50.9405835 18.1018605,51.247036 17.8481395,51.5574653 C17.5937209,51.8681285 17.3039535,52.1514216 16.9783721,52.4078123 C16.6523256,52.6639692 16.2874419,52.8714679 15.8837209,53.0305424 C15.4795349,53.1898509 15.0397674,53.2693882 14.5644186,53.2693882 C14.3493023,53.2693882 14.1427907,53.2427198 13.9437209,53.1877455 C13.7451163,53.1337069 13.5706977,53.0401337 13.4209302,52.9084293 C13.2709302,52.7769589 13.1506977,52.6003393 13.0593023,52.3785707 C12.967907,52.1575039 12.9225581,51.8795913 12.9225581,51.5460026 C12.9225581,51.5382828 12.9355814,51.4199126 12.9616279,51.1904242 C12.9874419,50.9614036 13.0706977,50.6006787 13.2106977,50.1075476 C13.3509302,49.6151183 13.5674419,48.9762468 13.8604651,48.1921028 C14.1539535,47.4077249 14.5674419,46.4572545 15.1018605,45.3397558 C15.2386047,45.0445321 15.3967442,44.8330566 15.5755814,44.7050951 C15.7548837,44.5768997 15.9486047,44.5128021 16.1569767,44.5128021 C16.2483721,44.5128021 16.3427907,44.5266041 16.4404651,44.5535064 C16.5386047,44.5808766 16.6293023,44.6232185 16.7144186,44.6817018 C16.7988372,44.7397172 16.8674419,44.8136401 16.9197674,44.9027686 C16.9716279,44.9918972 16.997907,45.0945938 16.997907,45.2110925 C16.997907,45.2887584 16.987907,45.3626812 16.9683721,45.4321594 C16.9355814,45.5645656 16.865814,45.7369743 16.7586047,45.9503213 C16.6509302,46.1641362 16.5255814,46.4085964 16.382093,46.6841697 C16.2390698,46.9599769 16.0872093,47.2566041 15.927907,47.575455 C15.767907,47.8931362 15.62,48.2236838 15.4832558,48.5647584 C15.3465116,48.9065347 15.2290698,49.2536915 15.1313953,49.6069306 C15.0334884,49.9601697 14.9781395,50.3038175 14.9653488,50.6371722 C14.9653488,50.7770643 14.9976744,50.9050257 15.0630233,51.0215244 C15.127907,51.1380231 15.2355814,51.1960386 15.3855814,51.1960386 C15.8088372,51.1960386 16.2127907,51.0561465 16.5974419,50.7770643 C16.9816279,50.4975141 17.3365116,50.1501234 17.6625581,49.734892 C17.9881395,49.3198946 18.2830233,48.8730823 18.5469767,48.3956247 C18.8109302,47.9181671 19.0306977,47.4818817 19.2065116,47.085599 C19.3304651,46.8219563 19.4395349,46.5381954 19.5339535,46.2357198 C19.6283721,45.9327763 19.7311628,45.6536941 19.8418605,45.3973033 C19.9525581,45.1409126 20.0793023,44.9275656 20.2230233,44.7567943 C20.3660465,44.5862571 20.5455814,44.5008715 20.7604651,44.5008715 C20.9955814,44.5008715 21.1809302,44.5902339 21.3176744,44.7687249 C21.4544186,44.9474499 21.5225581,45.1607969 21.5225581,45.4087661 C21.5225581,45.5486581 21.4788372,45.7409512 21.3911628,45.9854113 C21.3034884,46.2298715 21.1925581,46.5094216 21.0583721,46.8238278 C20.9248837,47.1382339 20.78,47.473928 20.6237209,47.83091 C20.4674419,48.188126 20.322093,48.5509563 20.1890698,48.919635 C20.0553488,49.2883136 19.9448837,49.6492725 19.8567442,50.0025116 C19.7686047,50.3557506 19.7251163,50.6837249 19.7251163,50.9862005 C19.7251163,51.2657506 19.8681395,51.4056427 20.1548837,51.4056427 C20.3569767,51.4056427 20.6076744,51.3356967 20.9074419,51.1960386 C21.2072093,51.0563805 21.5216279,50.8601105 21.8504651,50.6079306 C21.9327907,50.5447686 22.0153488,50.4790334 22.0974419,50.4100231 C22.1895349,50.028946 22.2967442,49.6766427 22.422093,49.3563882 C22.65,48.7505013 22.8813953,48.1492931 23.1160465,47.5515938 C23.3504651,46.9536607 23.5653488,46.4062571 23.7606977,45.9091491 L26.7216279,38.3989589 C26.8388372,38.0962494 26.9969767,37.8826684 27.1953488,37.7584499 C27.394186,37.6344653 27.5946512,37.5722391 27.7967442,37.5722391 C27.9983721,37.5722391 28.1823256,37.6382082 28.3486047,37.7701465 C28.5148837,37.9023188 28.597907,38.1156658 28.597907,38.4106555 C28.597907,38.5503136 28.5702326,38.6979254 28.5148837,38.8530231 C28.4595349,39.0085887 28.3895349,39.1751491 28.3046512,39.353874 C28.142093,39.7188098 27.9481395,40.1651542 27.7232558,40.6929075 C27.4983721,41.2208946 27.2572093,41.7952005 27.0002326,42.4162931 C26.7430233,43.0373856 26.4790698,43.683509 26.2088372,44.3551311 C25.9386047,45.0267532 25.6746512,45.6805964 25.4174419,46.3168946 C25.1604651,46.9538946 24.9188372,47.5569743 24.6944186,48.1275373 C24.4695349,48.6978663 24.2760465,49.1931028 24.1130233,49.6120771 C24.0409302,49.7908021 23.9713953,49.9985347 23.9032558,50.2352751 C23.8346512,50.4720154 23.8006977,50.683491 23.8006977,50.8699357 C23.8006977,50.9859666 23.8202326,51.0793059 23.8593023,51.149018 C23.8983721,51.2184961 23.9732558,51.254054 24.084186,51.254054 C24.2211628,51.254054 24.3916279,51.2056298 24.5969767,51.1083136 C24.8025581,51.0114653 25.0234884,50.883036 25.2613953,50.7237275 C25.4993023,50.564419 25.7469767,50.382419 26.0039535,50.1763239 C26.2613953,49.9704627 26.5172093,49.7573496 26.7711628,49.5362828 C27.0255814,49.314982 27.2681395,49.0932134 27.4993023,48.8723805 C27.7304651,48.6515476 27.9376744,48.4477918 28.1202326,48.261347 C28.1630233,48.2166658 28.214186,48.1850848 28.2704651,48.1609897 C28.3804651,47.8306761 28.4806977,47.5066787 28.5693023,47.190401 C28.6216279,47.0502751 28.6932558,46.8528355 28.7846512,46.5964447 C28.8755814,46.3398201 28.98,46.087874 29.0972093,45.839437 C29.2144186,45.5912339 29.3465116,45.3757815 29.4927907,45.1933136 C29.6395349,45.0110797 29.7976744,44.9196118 29.9669767,44.9196118 C30.2276744,44.9196118 30.4167442,44.9799666 30.5339535,45.0999743 C30.6511628,45.2206838 30.7097674,45.3970694 30.7097674,45.6303008 C30.7097674,45.6766195 30.7037209,45.7505424 30.6902326,45.8511337 C30.6769767,45.9519589 30.6611628,46.0593342 30.6416279,46.1713882 C30.622093,46.2834422 30.6006977,46.3908175 30.5783721,46.4916427 C30.5548837,46.5927018 30.5346512,46.6659229 30.5151163,46.7124756 C30.7555814,46.448365 31.0162791,46.1865938 31.2965116,45.926928 C31.5767442,45.6670283 31.8665116,45.4316915 32.1660465,45.2223213 C32.465814,45.0127172 32.7718605,44.8421799 33.0848837,44.7097738 C33.3976744,44.5780694 33.7102326,44.5121003 34.0227907,44.5121003 C34.2376744,44.5121003 34.4511628,44.5432134 34.6627907,44.6052057 C34.8744186,44.6671979 35.064186,44.7586658 35.2297674,44.8786735 C35.3960465,44.999383 35.5313953,45.1505039 35.6353488,45.3327378 C35.7390698,45.5149717 35.7916279,45.7266812 35.7916279,45.9673985 C35.7916279,46.2857815 35.7118605,46.6252185 35.5523256,46.9861774 C35.3927907,47.3471362 35.1925581,47.7099666 34.9513953,48.0742005 C34.7104651,48.4396041 34.4497674,48.7942468 34.17,49.14 C33.8897674,49.4855193 33.6276744,49.7994576 33.3832558,50.0827506 C33.1386047,50.3667455 32.9332558,50.6067609 32.7674419,50.8049023 C32.6016279,51.0032776 32.5148837,51.1370874 32.5086047,51.2070334 C32.5086047,51.2999049 32.5381395,51.3756992 32.5967442,51.4341825 C32.6553488,51.4921979 32.7530233,51.5214396 32.8897674,51.5214396 C33.0009302,51.5214396 33.1637209,51.4592134 33.3788372,51.3349949 C33.5937209,51.2107763 33.8953488,50.9955578 34.2827907,50.6888715 C34.6702326,50.3819512 35.1625581,49.9706967 35.7588372,49.4544062 C36.1676744,49.1006992 36.6460465,48.6791517 37.1855814,48.1991208 L39.9434884,24.1252931 L39.9248837,24.1252931 C37.127907,25.4725141 29.27,26.8955296 20.0123256,26.8955296" id="Fill-1" fill="#E94B4B"></path>
            <path d="M19.8681395,71.2218869 L19.8218605,71.2218869 C13.0018605,71.2169743 7.19697674,70.1710591 4.92232558,68.7003213 L7.71,73.1869254 L8.72767442,87.1571799 C8.72767442,87.1571799 19.8381395,95.0533599 30.822093,87.1571799 L31.6281395,73.0348689 L34.0302326,69.0825681 C31.4030233,70.3488483 26.034186,71.2176761 19.8218605,71.2221208 L19.8681395,71.2218869" id="Fill-2" fill="#E94B4B"></path>
            <path d="M20,26.0585167 C31.0227907,26.0585167 39.9560465,24.1692725 39.9560465,22.8847455 C39.9562791,21.8531003 34.1988372,20.979126 26.2272093,20.6738432 L28.5018605,12.6597609 L38.1006977,1.97182262 L35.434186,-0.0437455013 L24.7013953,11.3165167 L22.3181395,20.5739537 C21.5572093,20.5636607 20.7846512,20.5578123 20,20.5578123 C8.97837209,20.5578123 0.0437209302,21.5995167 0.0437209302,22.8847455 C0.0437209302,24.1692725 8.97837209,26.0585167 20,26.0585167 L20,26.0585167 Z M21.5934884,23.1235913 C21.6139535,23.0856941 21.6469767,23.0489666 21.69,23.0138766 L21.6690698,23.0943496 C21.644186,23.1041748 21.6169767,23.1135321 21.5934884,23.1235913 C21.5767442,23.1551722 21.5653488,23.1872211 21.5653488,23.2204396 C21.5651163,23.5516889 22.4576744,23.8202442 23.5590698,23.8202442 C24.66,23.8202442 25.5530233,23.5516889 25.5530233,23.2202057 C25.5530233,23.1907301 25.5432558,23.1617224 25.5290698,23.1334165 L25.5337209,23.1170411 C25.8293023,23.2377506 26.0118605,23.3762391 26.0118605,23.5070077 C26.0118605,23.8410643 24.8353488,24.2291594 23.5590698,24.2291594 C22.2830233,24.2291594 21.147907,23.8410643 21.147907,23.5067738 C21.147907,23.3785784 21.3160465,23.2426632 21.5934884,23.1235913 L21.5934884,23.1235913 Z" id="Fill-3" fill="#E94B4B"></path>
        </g>
    </g>
</svg>