<?xml version="1.0" encoding="UTF-8" standalone="no"?>
<svg width="100px" height="100px" viewBox="0 0 100 100" version="1.1" xmlns="http://www.w3.org/2000/svg" xmlns:xlink="http://www.w3.org/1999/xlink">
    <defs></defs>
    <g id="Page-1" stroke="none" stroke-width="1" fill="none" fill-rule="evenodd">
        <g>
            <rect id="Rectangle-1" fill="#F4F4F0" x="0" y="0" width="100" height="100"></rect>
            <g id="haml" transform="translate(31.000000, 25.000000)">
                <g id="Group">
                    <path d="M27.4970526,6.92230769 C27.5806974,6.91487179 27.6638289,6.90717949 27.7477303,6.89948718 C28.9002829,6.82128205 29.5022171,5.64512821 30.6060197,5.46948718 C31.7590855,4.57820513 32.8677632,4.89051282 34.0023553,5.54538462 C35.104875,6.18153846 36.2184276,6.80076923 37.1785461,7.64076923 C37.5672632,7.98051282 38.2826053,8.32179487 37.9731711,8.92410256 C37.6257632,9.59923077 37.0015066,8.89974359 36.4968158,8.9325641 C35.1277105,8.82692308 34.0629079,8.00897436 32.9098421,7.39948718 C32.6096447,7.24076923 32.3386974,7.00179487 31.994625,6.96153846 C31.3737039,6.88871795 30.8741447,7.20179487 30.6404013,7.71615385 C30.4256447,8.18923077 30.9919145,8.30102564 31.2718421,8.52128205 C32.2322171,9.27538462 33.4260789,9.73666667 34.1421908,10.7992308 C34.744125,11.6051282 35.26575,11.1217949 35.8025132,10.7053846 C36.0003355,10.5515385 36.2989934,10.3812821 36.4652566,10.6076923 C36.6227961,10.8220513 36.3392763,11.0494872 36.2027763,11.2510256 C35.8661447,11.3989744 35.763,11.6458974 35.6716579,12.0176923 C35.4466382,12.9320513 35.1092368,13.854359 33.8489211,13.6194872 C33.4353158,13.5425641 33.2102961,13.7938462 32.9524342,14.0005128 C32.5537105,14.3207692 32.2175921,14.7494872 31.7749934,14.9787179 C30.2106316,15.7905128 29.7323684,17.2235897 29.3931711,18.7928205 C28.9495461,20.8471795 29.4673224,21.8087179 31.4940395,22.4828205 C34.3959474,23.4484615 36.8301118,25.0374359 38.4729868,27.6874359 C39.0156513,28.5730769 39.0985263,29.4976923 38.7069868,30.4615385 C38.3254539,31.265641 37.9531579,32.1405128 37.1002895,32.5010256 C35.8740987,33.0202564 36.0544737,34.1817949 35.7101447,35.1092308 C35.5130921,35.3487179 35.6057171,35.8035897 35.1541382,35.8523077 C34.4303289,36.4297436 33.7881118,37.1238462 32.8823882,37.4417949 C31.7726842,37.7564103 30.6629803,37.6458974 29.5530197,37.4392308 C28.4484474,37.7035897 27.7805724,36.6035897 26.7768355,36.5528205 C26.4140329,35.685641 26.7678553,35.035641 27.4051974,34.4715385 C27.5329737,34.4538462 27.6571579,34.4720513 27.7749276,34.5248718 C28.0130329,35.8651282 28.952625,36.0602564 30.1115921,36.0338462 C31.3113553,36.0064103 32.4921316,36.0051282 33.4527632,35.1387179 C33.8607237,34.7707692 34.2881842,34.4348718 34.0739408,33.75 C33.8789408,33.1269231 34.4169868,32.8671795 34.8098092,32.5584615 C35.1474671,32.2033333 35.3024408,31.8248718 34.9652961,31.3792308 C34.8852434,31.2915385 34.8423947,31.19 34.8323882,31.0725641 C35.436375,30.0792308 35.4697303,30.0797436 36.4141974,31.0982051 C37.4438487,30.0976923 37.4574474,29.0169231 36.4280526,27.7779487 C35.2200789,26.3246154 33.6600789,25.3964103 31.8840395,24.8041026 C31.4794145,24.6692308 31.0645263,24.5671795 30.6575921,24.4379487 C27.9653092,23.5815385 27.0280263,22.2982051 27.0280263,19.2953846 C26.3170461,19.7171795 25.7410263,20.1871795 25.1706513,20.6538462 C23.6506776,21.8984615 22.0326908,23.0097436 20.4370263,24.1515385 C19.9646645,24.4892308 19.4874276,24.9161538 18.8115987,24.6910256 C18.7128158,24.6123077 18.65175,24.5105128 18.6207039,24.3892308 C19.0776711,23.0564103 20.3705724,22.5051282 21.279375,21.6017949 C22.2679737,20.6189744 23.4464408,19.8361538 24.4175921,18.8253846 C24.8004079,18.5007692 24.9974605,17.9620513 25.5470526,17.8292308 C25.9355132,17.9682051 25.9988882,17.5528205 26.2298092,17.4202564 C28.0127763,16.2076923 29.6187039,14.7653846 31.3593355,13.5023077 C32.0500461,13.0007692 31.7611382,12.7338462 31.2610658,12.4151282 C30.1339145,11.5089744 29.2641118,10.3084615 27.9871184,9.57846154 C27.4144342,9.57846154 26.7973618,9.70692308 26.4386645,9.06641026 C26.2241645,8.56923077 26.7234671,8.25435897 26.7550263,7.81923077 C26.7865855,7.65358974 26.8607368,7.51384615 26.9954408,7.41076923 C27.1627303,7.24794872 27.3300197,7.08487179 27.4970526,6.92230769 L27.4970526,6.92230769 Z" id="Shape" fill="#3E3E29"></path>
                    <path d="M35.2347039,31.27 C35.4207237,31.6687179 35.1749211,32.0097436 35.0879408,32.3717949 C33.798375,33.7428205 32.2065592,33.5858974 30.6152566,33.1769231 C29.7349342,32.9502564 29.0457632,32.7379487 28.9131118,34.0166667 C28.8494803,34.6297436 28.3478684,34.7992308 27.7623553,34.5933333 C27.6633158,34.5889744 27.5645329,34.5848718 27.46575,34.5805128 C24.3367697,34.0502564 21.3150395,33.2428205 18.6940855,31.1061538 C18.1537303,32.3371795 18.1652763,33.6153846 17.8779079,34.8202564 C17.6947105,35.5884615 17.8191513,36.4507692 17.2056711,37.0925641 C16.6832763,39.6361538 16.0836513,42.1666667 15.9084079,44.7689744 C15.4073092,46.0489744 15.3185329,47.4205128 15.0870987,48.754359 C14.9493158,49.5479487 14.5303224,49.8689744 13.8491053,49.9474359 C12.0366316,50.1574359 10.2241579,50.2553846 8.47428947,49.5564103 C8.36729605,49.0105128 8.78064474,48.9753846 9.13498026,48.8815385 C9.35101974,48.8530769 9.56577632,48.8692308 9.77771053,48.9107692 C10.6906184,49.1517949 11.6030132,49.2164103 12.5120724,48.8907692 C13.3741776,48.6874359 13.7536579,48.124359 13.8786118,47.2623077 C14.0312763,46.2084615 14.3073553,45.1725641 14.3135132,44.0966667 C14.3165921,43.9615385 14.3314737,43.8287179 14.3530263,43.6958974 C14.7461053,42.0351282 15.1166053,40.3710256 15.3182763,38.6746154 C15.4593947,37.2025641 16.1672961,35.7769231 15.6762039,34.254359 C15.6382303,34.055641 15.6415658,33.8561538 15.6821053,33.6592308 C15.7126382,33.534359 15.7688289,33.4189744 15.8452895,33.3158974 C16.3476711,33.0753846 16.3674276,32.5884615 16.4451711,32.1315385 C16.8526184,29.7412821 17.3811711,27.3733333 17.7860526,24.9817949 C17.8891974,24.6648718 18.0885592,24.4282051 18.3815724,24.2705128 C18.5052434,24.2261538 18.6291711,24.2279487 18.7520724,24.2746154 C18.7720855,24.4076923 18.7926118,24.5402564 18.8123684,24.6733333 C19.2462434,25.1366667 19.2162237,25.7317949 19.0956316,26.2492308 C18.7718289,27.6374359 19.4607434,28.5794872 20.421375,29.3482051 C22.3087697,30.8589744 24.5007237,31.814359 26.7629803,32.6228205 C27.4518947,32.8687179 27.8980855,32.6174359 28.2734605,32.0487179 C28.6811645,31.4310256 29.3131184,30.9797436 30.0107566,31.2525641 C31.6746711,31.9017949 33.2865,31.9064103 34.9247566,31.2525641 C35.0279013,31.2582051 35.1315592,31.264359 35.2347039,31.27 L35.2347039,31.27 Z" id="Shape" fill="#3E3E29"></path>
                    <path d="M0.520598684,1.52641026 C2.52396711,0.338205128 4.75363816,0.1 7.01101974,0.000769230769 C7.43488816,-0.0174358974 7.65503289,0.277948718 7.80384868,0.69 C8.16613816,1.69230769 8.38679605,2.77615385 9.55551316,3.28846154 C9.99785526,3.4825641 10.0260789,4.0574359 9.93935526,4.54641026 C9.41619079,5.19282051 10.0974079,5.59384615 10.2834276,6.07564103 C10.5346184,6.72717949 10.895625,7.33641026 11.2094211,7.96358974 C11.8670329,8.36461538 11.7908289,9.13923077 12.1018026,9.71666667 C13.2045789,12.1135897 14.3073553,14.51 15.409875,16.9069231 C15.5125066,16.994359 15.5556118,17.105641 15.5474013,17.2394872 C15.4504145,17.6025641 15.4314276,18.0441026 14.8572039,17.9325641 C13.8139539,16.0423077 12.7745526,14.1466667 11.8098158,12.2153846 C10.8622697,10.3179487 9.81901974,8.47 8.906625,6.55410256 C8.53073684,5.76538462 8.08300658,5.00589744 6.97509868,5.41846154 C5.64473684,5.67358974 4.33746711,6.01128205 3.06586184,6.47794872 C2.71434868,6.56974359 2.36488816,6.60820513 2.03005263,6.41538462 C1.33703289,6.6525641 0.749980263,6.54538462 0.507256579,5.78717949 C0.295322368,5.12512821 -0.587565789,4.40487179 0.631184211,3.77615385 C1.03606579,3.5674359 0.620664474,3.18333333 0.593723684,2.87846154 C0.626565789,2.7925641 0.700973684,2.68717949 0.743052632,2.70846154 C2.37720395,3.53794872 4.06985526,3.09923077 5.747625,2.94641026 C6.09323684,2.88179487 6.67746711,3.09410256 6.72416447,2.67307692 C6.78830921,2.09076923 6.06373026,2.17948718 5.71247368,1.93230769 C5.46333553,1.78230769 5.31631579,1.52564103 5.09771053,1.34410256 C3.66163816,1.12205128 2.37643421,1.64974359 1.08327632,2.14153846 C0.804118421,2.14025641 0.599368421,2.02846154 0.504690789,1.75358974 C0.539328947,1.68 0.544717105,1.60410256 0.520598684,1.52641026 L0.520598684,1.52641026 Z" id="Shape" fill="#3E3E29"></path>
                    <path d="M34.1411645,10.7987179 C32.8731513,9.96358974 31.6128355,9.11615385 30.3319934,8.30128205 C29.9119737,8.03435897 29.8234539,7.85205128 30.2096053,7.45128205 C31.0245,6.60487179 31.7200855,6.03384615 32.9485855,6.99051282 C33.9987632,7.80794872 35.3042368,8.29820513 36.4965592,8.93282051 C35.124375,8.81410256 34.6733092,9.85769231 34.1411645,10.7987179 L34.1411645,10.7987179 L34.1411645,10.7987179 Z" id="Shape" fill="#ECE2A9"></path>
                    <path d="M9.36153947,49.1615385 C9.03491447,49.2230769 8.66390132,49.1871795 8.47428947,49.5566667 C7.21730921,49.1674359 5.97828947,48.7379487 4.92221053,47.9141026 C4.87217763,47.6594872 5.03023026,47.5533333 5.23215789,47.4774359 C6.68131579,47.86 8.17871053,48.1258974 9.36153947,49.1615385 L9.36153947,49.1615385 L9.36153947,49.1615385 Z" id="Shape" fill="#3E3E29"></path>
                    <path d="M5.22676974,47.6369231 C5.12516447,47.7292308 5.02355921,47.8217949 4.92195395,47.9141026 C3.77248026,47.4166667 3.24880263,46.6258974 3.89204605,45.4248718 C4.14298026,44.9566667 3.71834211,44.4279487 4.13271711,44.0251282 C4.36569079,43.9989744 4.58557895,43.9510256 4.67846053,43.6948718 C4.96249342,43.9494872 5.03998026,44.3092308 4.93683553,44.6230769 C4.58814474,45.6812821 4.74568421,46.6692308 5.22676974,47.6369231 L5.22676974,47.6369231 L5.22676974,47.6369231 Z" id="Shape" fill="#3E3E29"></path>
                    <path d="M38.7054474,30.4612821 C38.9443224,29.5097436 38.7921711,28.5910256 38.4714474,27.6871795 C39.2801842,28.55 39.2742829,29.4820513 38.7054474,30.4612821 L38.7054474,30.4612821 L38.7054474,30.4612821 Z" id="Shape" fill="#3E3E29"></path>
                    <path d="M4.67871711,43.6969231 C4.75876974,43.5274359 4.83856579,43.3605128 4.918875,43.1938462 C5.09848026,41.4066667 5.74172368,39.7376923 6.23640789,38.0310256 C7.57523684,33.4117949 9.09854605,28.8464103 10.2639276,24.1769231 C10.5156316,23.1669231 10.4930526,22.3689744 9.73306579,21.3948718 C8.555625,19.8853846 8.10917763,17.9535897 7.89390789,16.0230769 C7.87055921,15.1838462 7.88467105,14.3448718 7.87979605,13.5071795 C8.00141447,11.6979487 6.96919737,10.2482051 6.36392763,8.66564103 C6.20305263,8.03102564 5.67270395,7.54820513 5.61882237,6.86794872 C5.61471711,6.44410256 5.59726974,5.9725641 6.07322368,5.8 C6.54969079,5.62692308 6.84398684,5.99871795 7.10826316,6.32923077 C7.37330921,6.66128205 7.65375,6.96538462 8.08865132,7.06923077 C9.34178289,7.84512821 9.65660526,9.27641026 10.2382697,10.4471795 C11.3341184,12.6533333 12.728625,14.6979487 13.6861776,16.9710256 C13.9607171,17.6228205 14.5741974,17.9928205 14.9639408,18.5469231 C15.0152566,18.6664103 14.9801053,18.7992308 15.0024276,18.9153846 C15.0537434,19.1812821 15.1350789,18.9071795 15.1527829,18.8935897 C18.9555395,16.0007692 22.6967171,13.0289744 26.4799737,10.1115385 C26.9505395,9.74871795 27.5221974,9.55846154 28.0179079,9.2374359 C29.2669342,10.0961538 30.5187829,10.9517949 31.3275197,12.2874359 C31.2592697,12.7628205 30.8841513,12.9420513 30.5187829,13.1310256 C29.9289079,13.4541026 29.4006118,13.8612821 28.90875,14.3184615 C27.6250855,15.3023077 26.9800461,16.8764103 25.6617434,17.8261538 C25.3541053,18.2348718 25.0467237,18.6435897 24.7383158,19.0523077 C23.4372039,19.525641 22.6559211,20.6861538 21.5780329,21.4605128 C20.6263816,22.1441026 19.8864079,23.1061538 18.8367434,23.6871795 C18.5958158,23.8207692 18.5406513,24.0835897 18.5126842,24.3423077 C18.4239079,24.594359 18.2309605,24.7410256 17.9979868,24.8461538 C17.1830921,25.6861538 17.2988092,26.7997436 17.1212566,27.8274359 C16.8649342,29.3084615 16.8741711,30.8469231 16.1765329,32.2333333 C15.8319474,32.4764103 15.6443882,32.3094872 15.5199474,31.9779487 C15.3287961,31.4692308 15.1966579,30.9366667 14.9703553,30.5720513 C15.2803026,31.5012821 15.8614539,32.4728205 15.9199539,33.6084615 C15.9253421,33.7664103 15.9312434,33.9241026 15.9366316,34.0825641 C16.0795461,35.9117949 15.5379079,37.5938462 14.8276974,39.2407692 C14.1590526,39.9730769 13.3025921,40.6217949 13.6859211,41.8194872 C13.7321053,42.1130769 13.7405724,42.4082051 13.7210724,42.7041026 C13.4134342,43.6017949 13.8485921,43.9658974 14.6832434,44.0448718 C14.7709934,45.5087179 14.2234539,46.8871795 14.1079934,48.3264103 C14.0340987,49.2505128 13.1317105,48.9505128 12.6134211,49.2194872 C11.6715197,49.394359 10.729875,49.4097436 9.78976974,49.2074359 C9.64634211,49.1923077 9.50368421,49.1774359 9.36051316,49.1623077 C7.94855921,48.7474359 6.53609211,48.3320513 5.22676974,47.6369231 C4.2705,47.0494872 3.90718421,46.3079487 4.43034868,45.1979487 C4.63817763,44.7574359 4.60328289,44.2028205 4.67871711,43.6969231 L4.67871711,43.6969231 Z" id="Shape" fill="#ECE2A9"></path>
                    <path d="M28.0179079,9.23769231 C23.5621579,12.9433333 18.9547697,16.4497436 14.2024145,19.9261538 C14.0707895,19.1720513 14.9128816,19.2020513 14.8679803,18.6723077 C14.8928684,18.4135897 14.5703487,18.0697436 15.0516908,17.9225641 C15.1640724,17.6707692 15.2761974,17.4187179 15.3883224,17.1666667 C15.5894803,17.6012821 15.7110987,18.0930769 16.3492105,17.5246154 C18.6979342,15.4330769 21.0764211,13.374359 23.4436184,11.3038462 C24.4455592,10.5164103 25.4480132,9.72820513 26.4504671,8.94051282 C26.8935789,9.45923077 27.5201447,9.00846154 28.0179079,9.23769231 L28.0179079,9.23769231 L28.0179079,9.23769231 Z" id="Shape" fill="#3E3E29"></path>
                    <path d="M30.3343026,12.8 C30.7763882,12.8433333 31.0039737,12.4725641 31.3277763,12.2874359 C31.8619737,12.2176923 32.1832105,12.5779487 32.7163816,12.9697436 C30.3920329,14.4220513 28.6136842,16.4389744 26.2246776,17.6489744 C26.6310987,16.1430769 27.9204079,15.3241026 28.8748816,14.244359 C29.3687961,13.7705128 29.9653421,13.4 30.3343026,12.8 L30.3343026,12.8 L30.3343026,12.8 Z" id="Shape" fill="#FFFFFF"></path>
                    <path d="M18.5129408,24.3415385 C18.0421184,23.7871795 18.4357105,23.6033333 18.871125,23.3 C20.5547961,22.1271795 22.1371184,20.8338462 23.4951908,19.2746154 C23.7661382,18.9638462 24.253125,18.7269231 24.7385724,19.0520513 C22.7434145,20.7928205 20.7477434,22.5335897 18.7528421,24.2746154 C18.6666316,24.275641 18.5868355,24.2979487 18.5129408,24.3415385 L18.5129408,24.3415385 L18.5129408,24.3415385 Z" id="Shape" fill="#FFFFFF"></path>
                    <path d="M29.0211316,14.3287179 C28.1849408,15.5164103 26.934375,16.3548718 26.2251908,17.6489744 C26.0840724,17.8561538 26.0009408,18.2476923 25.662,17.825641 C26.4463618,16.3658974 27.4975658,15.1282051 28.7825132,14.0858974 C28.8972039,14.1323077 28.9749474,14.2146154 29.0211316,14.3287179 L29.0211316,14.3287179 L29.0211316,14.3287179 Z" id="Shape" fill="#555555"></path>
                    <path d="M37.0600066,8.38128205 C35.6162368,8.03846154 34.4310987,7.29871795 33.4332632,6.24435897 C34.8713882,6.56692308 35.9757039,7.47641026 37.0600066,8.38128205 L37.0600066,8.38128205 L37.0600066,8.38128205 Z" id="Shape" fill="#FFFFFF"></path>
                    <path d="M15.9374013,32.2869231 C16.579875,30.1771795 16.6463289,27.9746154 16.9637171,25.8130769 C17.0635263,25.1346154 17.3047105,24.7976923 17.9979868,24.845641 C18.2124868,25.9215385 17.7429474,26.9135897 17.5900263,27.9417949 C17.3326776,29.6687179 16.9644868,31.3792308 16.6486382,33.0979487 C16.5470329,33.6523077 16.3225263,33.7110256 15.9543355,33.2951282 C15.7649803,32.9620513 15.6890329,32.6274359 15.9374013,32.2869231 L15.9374013,32.2869231 L15.9374013,32.2869231 Z" id="Shape" fill="#FFFFFF"></path>
                    <path d="M13.3790526,42.6553846 C13.3787961,42.4079487 13.3787961,42.1602564 13.3785395,41.9128205 C13.3734079,40.7617949 13.7605855,39.8371795 14.8741382,39.3346154 C15.1148092,39.1005128 15.1763882,38.6453846 15.6528553,38.6994872 C15.3547105,40.41 15.2851776,42.1653846 14.6498882,43.81 C13.3228618,44.4176923 13.6543618,43.2033333 13.3790526,42.6553846 L13.3790526,42.6553846 L13.3790526,42.6553846 Z" id="Shape" fill="#ECE2A9"></path>
                    <path d="M15.1502171,39.4779487 C14.8941513,39.564359 14.7527763,39.4405128 14.6660526,39.2153846 C14.5436645,37.9523077 15.4542632,36.9805128 15.6431053,35.7846154 C15.7311118,35.2251282 15.0534868,34.4925641 15.9371447,34.0807692 C16.6460724,35.0830769 16.0685132,36.095641 15.9502303,37.1002564 C15.8865987,37.6382051 15.7539474,38.1671795 15.6525987,38.7 C15.4853092,38.9594872 15.3177632,39.2184615 15.1502171,39.4779487 L15.1502171,39.4779487 L15.1502171,39.4779487 Z" id="Shape" fill="#FFFFFF"></path>
                    <path d="M15.9374013,32.2869231 C15.9427895,32.6230769 15.9486908,32.9587179 15.9543355,33.2951282 C15.9430461,33.3989744 15.9317566,33.5033333 15.9202105,33.6074359 C15.4314276,32.3435897 14.9429013,31.0802564 14.454375,29.8164103 C15.458625,30.3594872 15.3788289,31.504359 15.9374013,32.2869231 L15.9374013,32.2869231 L15.9374013,32.2869231 Z" id="Shape" fill="#555555"></path>
                    <path d="M13.3790526,42.6553846 C13.6566711,43.2007692 13.6936184,44.0107692 14.6498882,43.8105128 C14.7001776,43.8825641 14.7117237,43.9602564 14.6842697,44.0438462 C13.3621184,44.4141026 13.0516579,44.0835897 13.3790526,42.6553846 L13.3790526,42.6553846 L13.3790526,42.6553846 Z" id="Shape" fill="#3E3E29"></path>
                    <path id="Shape" fill="#4C491C" d="M9.79028289,49.2066667 C10.7314145,49.2107692 11.6725461,49.2146154 12.6139342,49.2187179 C11.6710066,49.6084615 10.729875,49.6261538 9.79028289,49.2066667 L9.79028289,49.2066667 L9.79028289,49.2066667 Z"></path>
                    <path d="M9.63069079,20.4961538 C9.90856579,20.9428205 9.72690789,21.8528205 10.7578421,21.6751282 C10.9579737,21.6407692 11.0105724,22.1858974 10.9674671,22.4733333 C10.8604737,23.1887179 10.7501447,23.9092308 10.5625855,24.6058974 C8.87788816,30.8612821 7.02307895,37.0658974 4.91836184,43.1938462 C4.31950658,42.5423077 4.84651974,41.8723077 4.99123026,41.2879487 C6.38317105,35.6617949 7.66888816,30.0066667 9.34486184,24.4553846 C9.59143421,23.6384615 9.47520395,23.0053846 9.14344737,22.2723077 C6.75315789,16.9951282 4.39673684,11.7025641 2.02928289,6.41461538 C2.29125,6.2774359 2.55552632,6.19153846 2.82929605,6.38692308 C3.87819079,6.89076923 3.93515132,8.08846154 4.57813816,8.87615385 C4.73619079,9.19487179 4.74465789,9.56923077 4.94966447,9.87128205 C5.35993421,10.7692308 5.66526316,11.7230769 6.33929605,12.4815385 C6.65925,13.7569231 7.57549342,14.8020513 7.75740789,16.1323077 C7.7805,16.3 7.86003947,16.4048718 7.82719737,16.2392308 C7.81513816,16.1782051 7.91802632,16.1071795 7.99217763,16.0538462 C8.10327632,16.0164103 8.19179605,16.0446154 8.26466447,16.1279487 C8.64209211,17.6089744 8.80296711,19.1648718 9.63069079,20.4961538 L9.63069079,20.4961538 Z" id="Shape" fill="#3E3E29"></path>
                    <path d="M5.94416447,3.2674359 C5.05973684,3.36358974 4.17633553,3.46948718 3.29113816,3.55282051 C2.3985,3.63692308 1.40040789,4.00589744 0.940361842,2.76641026 C0.938565789,2.76153846 0.714828947,2.83923077 0.594236842,2.87871795 C0.496480263,2.67794872 0.398210526,2.4774359 0.300197368,2.27692308 C1.83864474,1.88692308 3.40044079,1.70435897 4.98840789,1.74564103 C5.577,2.0825641 6.25282895,2.3674359 5.94416447,3.2674359 L5.94416447,3.2674359 L5.94416447,3.2674359 Z" id="Shape" fill="#ECE2A9"></path>
                    <path d="M5.15749342,1.99794872 C3.53745395,2.07333333 1.94435526,2.61948718 0.300197368,2.27692308 C0.260940789,2.06051282 0.189611842,1.83153846 0.504690789,1.75358974 C0.709184211,1.83615385 0.913677632,1.91923077 1.11817105,2.00179487 C2.52550658,1.54512821 3.97697368,1.28153846 5.42792763,1.01538462 C5.51208553,1.24948718 5.59598684,1.48358974 5.67988816,1.71769231 C5.59342105,1.97487179 5.38969737,2.01282051 5.15749342,1.99794872 L5.15749342,1.99794872 L5.15749342,1.99794872 Z" id="Shape" fill="#3E3E29"></path>
                    <path d="M4.39930263,8.98435897 C3.56567763,8.30589744 3.46843421,7.18384615 2.83006579,6.3874359 C4.07165132,5.50461538 5.55955263,5.41025641 6.97715132,5.09153846 C7.81180263,5.64461538 8.31392763,6.34589744 8.009625,7.40589744 C7.43771053,7.39153846 7.16060526,6.95358974 6.83449342,6.58769231 C6.63333553,6.36179487 6.57432237,5.86153846 6.14506579,6.05025641 C5.79457895,6.20461538 5.99009211,6.64307692 5.92004605,6.95076923 C5.72068421,7.74666667 6.54969079,8.17435897 6.6105,8.87897436 C7.36176316,10.3569231 8.01039474,11.8658974 8.12021053,13.5505128 C8.07376974,14.4097436 8.22797368,15.274359 8.02938158,16.1269231 C7.87466447,16.2317949 7.89621711,16.7482051 7.80538816,16.5412821 C7.22346711,15.2233333 6.23435526,14.054359 6.20715789,12.5187179 C6.06244737,12.265641 6.08630921,11.9733333 6.01446711,11.7020513 C5.88361184,10.5530769 4.87089474,9.92871795 4.39930263,8.98435897 L4.39930263,8.98435897 L4.39930263,8.98435897 Z" id="Shape" fill="#ECE2A9"></path>
                    <path d="M8.009625,7.40615385 C7.83309868,6.55974359 7.31583553,5.86538462 6.97715132,5.09205128 C7.89416447,4.56076923 8.43426316,4.77076923 8.93125658,5.77179487 C10.7614342,9.45769231 12.6921908,13.094359 14.5754803,16.7538462 C14.7674013,17.1264103 14.8944079,17.5323077 15.0514342,17.9230769 C15.1848553,18.2205128 15.1432895,18.4753846 14.8677237,18.6728205 C13.9076053,18.2528205 13.5081118,17.4376923 13.0673092,16.5223077 C11.9640197,14.2305128 10.7362895,11.9917949 9.43440789,9.80564103 C8.96025,9.00820513 8.90303289,7.95051282 8.009625,7.40615385 L8.009625,7.40615385 L8.009625,7.40615385 Z" id="Shape" fill="#FFFFFF"></path>
                    <path d="M5.42792763,1.01538462 C4.08550658,1.75461538 2.63147368,2.0074359 1.11817105,2.00153846 C2.38823684,0.945384615 3.87793421,0.848461538 5.42792763,1.01538462 L5.42792763,1.01538462 L5.42792763,1.01538462 Z" id="Shape" fill="#FFFFFF"></path>
                    <path d="M5.15749342,1.99794872 C5.23318421,1.72128205 5.49335526,1.78769231 5.68014474,1.71794872 C6.10375658,1.87051282 6.65591447,1.43589744 6.97946053,1.94461538 C7.19934868,2.29102564 7.62732237,2.74487179 7.38023684,3.08461538 C7.06490132,3.5174359 6.43936184,3.25923077 5.94416447,3.2674359 C5.92363816,2.69435897 5.33838158,2.47128205 5.15749342,1.99794872 L5.15749342,1.99794872 L5.15749342,1.99794872 Z" id="Shape" fill="#FFFFFF"></path>
                    <path d="M6.43140789,8.71974359 C6.30260526,8.44615385 6.44680263,8.42076923 6.66515132,8.46358974 C7.37715789,10.0182051 8.24105921,11.524359 8.24875658,13.3087179 C8.15613158,13.46 8.05940132,13.4623077 7.95882237,13.3164103 C7.62398684,11.7264103 7.04180921,10.2184615 6.43140789,8.71974359 L6.43140789,8.71974359 Z" id="Shape" fill="#3E3E29"></path>
                    <path d="M12.0515132,42.2694872 C12.055875,43.6941026 12.1659474,45.1064103 12.5805789,46.4861538 C11.5709408,44.8074359 11.4067303,43.0158974 11.78775,41.1497436 C12.1623553,41.4553846 11.8331645,41.9269231 12.0515132,42.2694872 L12.0515132,42.2694872 L12.0515132,42.2694872 Z" id="Shape" fill="#3E3E29"></path>
                    <path d="M14.6663092,39.2153846 C14.8276974,39.3030769 14.9888289,39.3907692 15.1502171,39.4776923 C13.8750197,39.7923077 13.7836776,40.9666667 13.3782829,41.9125641 C12.9800724,40.7535897 13.3795658,39.9171795 14.6663092,39.2153846 L14.6663092,39.2153846 L14.6663092,39.2153846 Z" id="Shape" fill="#3E3E29"></path>
                    <path d="M12.0515132,42.2694872 C11.7454145,41.9474359 11.8932039,41.5187179 11.7882632,41.1497436 C11.7035921,40.4187179 12.0476645,39.8253846 12.4017434,39.2351282 C12.6180395,39.204359 12.7453026,39.2574359 12.6619145,39.5094872 C12.2221382,40.3776923 12.1110395,41.3179487 12.0515132,42.2694872 L12.0515132,42.2694872 L12.0515132,42.2694872 Z" id="Shape" fill="#3E3E29"></path>
                    <path d="M29.0211316,14.3287179 C28.9413355,14.2482051 28.8617961,14.1669231 28.782,14.0864103 C29.1838026,13.5187179 29.7580263,13.1582051 30.3340461,12.7997436 C30.3360987,13.6866667 29.4837434,13.8402564 29.0211316,14.3287179 L29.0211316,14.3287179 L29.0211316,14.3287179 Z" id="Shape" fill="#555555"></path>
                    <path d="M6.43166447,8.72 C6.11761184,8.17974359 5.69169079,7.67230769 5.51773026,7.09051282 C5.29271053,6.33769231 5.75634868,6.94025641 5.92030263,6.95076923 C6.16841447,7.45512821 6.41678289,7.95948718 6.66540789,8.46384615 C6.58740789,8.54923077 6.50992105,8.63461538 6.43166447,8.72 L6.43166447,8.72 Z" id="Shape" fill="#3E3E29"></path>
                    <path d="M12.4012303,39.2353846 C12.6616579,38.6235897 13.1632697,38.2897436 13.8485921,38.1323077 C13.4529474,38.5915385 13.0573026,39.0507692 12.6614013,39.5097436 C12.5746776,39.4184615 12.4879539,39.3264103 12.4012303,39.2353846 L12.4012303,39.2353846 Z" id="Shape" fill="#3E3E29"></path>
                    <path id="Shape" fill="#443C0E" d="M7.95882237,13.3164103 C8.05555263,13.3135897 8.15228289,13.3110256 8.24901316,13.3089744 C8.25440132,14.2487179 8.25953289,15.1882051 8.26492105,16.1279487 C8.18666447,16.1274359 8.10815132,16.1269231 8.02963816,16.1264103 C7.86440132,15.1930769 7.90365789,14.2548718 7.95882237,13.3164103 L7.95882237,13.3164103 L7.95882237,13.3164103 Z"></path>
                    <path d="M6.201,11.8107692 C6.36315789,12.0451282 6.40882895,12.2807692 6.20715789,12.5184615 C5.14928289,11.9961538 5.18674342,10.7812821 4.59071053,9.96692308 C4.64869737,9.55 4.90142763,9.64230769 5.09386184,9.81717949 C5.68450658,10.3525641 6.13095395,10.9810256 6.201,11.8107692 L6.201,11.8107692 L6.201,11.8107692 Z" id="Shape" fill="#FFFFFF"></path>
                    <path d="M6.201,11.8107692 C5.64576316,11.2123077 5.72145395,10.0638462 4.59096711,9.96692308 C4.28178947,9.68692308 4.41572368,9.32076923 4.39904605,8.98435897 C5.34043421,9.70974359 6.47707895,10.3105128 6.201,11.8107692 L6.201,11.8107692 L6.201,11.8107692 Z" id="Shape" fill="#3E3E29"></path>
                </g>
            </g>
        </g>
    </g>
</svg>