<?xml version="1.0" encoding="UTF-8" standalone="no"?>
<svg width="100px" height="100px" viewBox="0 0 100 100" version="1.1" xmlns="http://www.w3.org/2000/svg" xmlns:xlink="http://www.w3.org/1999/xlink">
    <defs>
        <linearGradient x1="23.9740576%" y1="46.0435022%" x2="68.7734425%" y2="55.5980653%" id="linearGradient-1">
            <stop stop-color="#919191" offset="0%"></stop>
            <stop stop-color="#FFFFFF" offset="100%"></stop>
        </linearGradient>
        <linearGradient x1="26.4558875%" y1="42.3993362%" x2="67.1938916%" y2="51.9232411%" id="linearGradient-2">
            <stop stop-color="#990000" offset="0%"></stop>
            <stop stop-color="#E80000" offset="100%"></stop>
        </linearGradient>
    </defs>
    <g id="Page-1" stroke="none" stroke-width="1" fill="none" fill-rule="evenodd">
        <g id="jekyll-bd0c45118e43dd2df5e006db2deeef46" transform="translate(26.000000, 6.000000)">
            <g id="logo-bg-light">
                <g id="test-tube_1_">
                    <path d="M27.2738261,1.74948293 C27.2346261,1.90766829 27.2337739,2.07765854 27.2667957,2.25709268 C27.2667957,2.25709268 27.8008957,5.82903415 27.1945739,7.41861463 L1.41524783,74.9496 L1.41716522,74.9504585 C-0.422678261,79.9106537 2.04287391,85.4484293 6.95927826,87.353522 C11.8756826,89.2584 17.3888217,86.8117854 19.3221913,81.888078 L19.3245348,81.8891512 L45.1038609,14.3579512 C45.6079217,13.036878 48.4827304,10.4775805 48.4827304,10.4775805 C48.6269609,10.3668293 48.7388087,10.2397659 48.8150783,10.095961 L48.8276478,10.0697756 C48.8414957,10.0414439 48.857687,10.0144 48.8687652,9.98499512 C49.5334609,8.24366829 45.2459609,4.96148293 39.2920348,2.65480976 C33.3378957,0.347921951 27.9723957,-0.110536585 27.3077,1.63079024 C27.2964087,1.66019512 27.2900174,1.69110244 27.2817087,1.72136585 L27.2738261,1.74948293 L27.2738261,1.74948293 Z" id="shadow_1_" opacity="0.1" fill="#000000"></path>
                    <path d="M26.528813,1.17555122 C26.4894,1.33373659 26.4883348,1.50372683 26.5217826,1.68316098 C26.5217826,1.68316098 27.0560957,5.25510244 26.4493478,6.84468293 L0.669808696,74.3754537 L0.672152174,74.3763122 C-1.16747826,79.3365073 1.29786087,84.8742829 6.21426522,86.7793756 C11.1302435,88.6842537 16.6438087,86.237639 18.5771783,81.3139317 L18.5795217,81.3150049 L44.3588478,13.7838049 C44.8626957,12.4627317 47.7377174,9.90343415 47.7377174,9.90343415 C47.8819478,9.79268293 47.9937957,9.66583415 48.0700652,9.52181463 L48.0824217,9.49562927 C48.0962696,9.4675122 48.1124609,9.44025366 48.1235391,9.41084878 C48.7882348,7.66952195 44.5007348,4.38755122 38.5470217,2.08066341 C32.5928826,-0.22622439 27.2273826,-0.684682927 26.562687,1.0566439 C26.5513957,1.08604878 26.5450043,1.1169561 26.5366957,1.14721951 L26.528813,1.17555122 L26.528813,1.17555122 Z" id="tube_1_" fill="url(#linearGradient-1)"></path>
                    <path d="M34.6153043,31.7259317 L16.0247043,80.425561 L16.0368478,80.4300683 C14.6657,83.9204488 10.6753957,85.7364683 7.13567826,84.3649561 C3.59596087,82.9934439 1.68006087,78.8892098 2.98388696,75.3724293 L2.98388696,75.3724293 L14.8627652,44.2543415 C14.8627652,44.2543415 16.3464,41.8433561 19.2593435,40.128 C22.172287,38.4128585 24.5745652,38.7747317 27.8092043,37.3263805 C31.0436304,35.8780293 34.6153043,31.7259317 34.6153043,31.7259317 L34.6153043,31.7259317 Z" id="liquid_1_" fill="url(#linearGradient-2)"></path>
                    <ellipse id="top_1_" fill="#333333" transform="translate(37.241831, 5.316943) rotate(21.037511) translate(-37.241831, -5.316943) " cx="37.2418307" cy="5.31694326" rx="7.16890472" ry="1.8996229"></ellipse>
                    <path d="M26.5215696,1.68294634 C26.5215696,1.68294634 27.048,5.27527805 26.4491348,6.84446829 L0.669808696,74.3754537 L0.672152174,74.3763122 C-1.16747826,79.3365073 1.29786087,84.8742829 6.21426522,86.7793756 C7.06750435,87.1099122 7.93821304,87.3063024 8.80572609,87.3850732 C5.49162174,84.8734244 4.06976957,80.3811317 5.59026087,76.2820488 L5.58791739,76.2811902 L30.8557261,10.0897366 C30.8557261,10.0897366 27.4163522,6.83609756 26.5215696,1.68294634 L26.5215696,1.68294634 Z" id="side-reflection_1_" opacity="0.3" fill="#FFFFFF"></path>
                    <g id="bubbles_1_" transform="translate(11.078261, 44.429268)" fill="#FFFFFF" opacity="0.5">
                        <ellipse id="Oval" cx="7.13823478" cy="0.752507317" rx="0.746930435" ry="0.752507317"></ellipse>
                        <ellipse id="Oval" cx="11.9911522" cy="6.28556098" rx="1.12593478" ry="1.13434146"></ellipse>
                        <ellipse id="Oval" cx="4.66884783" cy="12.8598049" rx="2.11232609" ry="2.12809756"></ellipse>
                        <ellipse id="Oval" cx="1.12614783" cy="16.8028488" rx="1.12614783" ry="1.1345561"></ellipse>
                        <ellipse id="Oval" cx="5.64693043" cy="25.2208" rx="0.746930435" ry="0.752507317"></ellipse>
                    </g>
                </g>
            </g>
        </g>
    </g>
</svg>