<?xml version="1.0" encoding="UTF-8" standalone="no"?>
<svg width="100px" height="100px" viewBox="0 0 100 100" version="1.1" xmlns="http://www.w3.org/2000/svg" xmlns:xlink="http://www.w3.org/1999/xlink">
    <defs></defs>
    <g id="Page-1" stroke="none" stroke-width="1" fill="none" fill-rule="evenodd">
        <g id="middleman-logo-0b6a7822" transform="translate(15.000000, 15.000000)">
            <g id="g3089" transform="translate(38.743894, 11.758818)" fill="#EFE8D5">
                <path d="M17.2215443,18.5828007 L24.2740672,1.92421961 L32.4389512,2.58715381 L32.4389512,44.6011988 L24.7647801,45.2331685 L24.7647801,20.387586 L17.2433669,37.7161788 L17.0720302,37.7259105 L9.14719445,20.3353887 L9.14719445,46.5204051 L0.0887647666,47.2662061 L0.0887647666,-0.0380420428 L9.79125508,0.749339774 L17.2215443,18.5828007 Z" id="polygon3091"></path>
            </g>
            <path d="M71.1828453,4.40461259 L35.4999989,-0.378068425 L35.4999989,4.88500396 L71.1828453,8.53880947 L71.1828453,4.40461259 Z" id="polygon3093" fill="#EFE8D5"></path>
            <path d="M71.1828453,62.4606036 L35.4999989,66.1144091 L35.4999989,71.3780713 L71.1828453,66.5948005 L71.1828453,62.4606036 Z" id="polygon3095" fill="#EFE8D5"></path>
            <g id="g3097" transform="translate(0.406952, 11.758818)" fill="#C6BDA8">
                <path d="M15.2746174,18.5828007 L8.22238944,1.92421961 L0.0578003131,2.58715381 L0.0578003131,44.6011988 L7.73226638,45.2331685 L7.73226638,20.387586 L15.2536796,37.7161788 L15.4250162,37.7259105 L23.349852,20.3353887 L23.349852,46.5204051 L32.4082817,47.2662061 L32.4082817,-0.0380420428 L22.7054965,0.749339774 L15.2746174,18.5828007 Z" id="polygon3099"></path>
            </g>
            <path d="M-0.182847423,4.40461259 L35.4999989,-0.378068425 L35.4999989,4.88500396 L-0.182847423,8.53880947 L-0.182847423,4.40461259 Z" id="polygon3101" fill="#C6BDA8"></path>
            <path d="M-0.182847423,62.4606036 L35.4999989,66.1144091 L35.4999989,71.3780713 L-0.182847423,66.5948005 L-0.182847423,62.4606036 Z" id="polygon3103" fill="#C6BDA8"></path>
        </g>
    </g>
</svg>