<?xml version="1.0" encoding="UTF-8" standalone="no"?>
<svg width="100px" height="50px" viewBox="0 0 100 50" version="1.1" xmlns="http://www.w3.org/2000/svg" xmlns:xlink="http://www.w3.org/1999/xlink">
    <defs></defs>
    <g id="Page-1" stroke="none" stroke-width="1" fill="none" fill-rule="evenodd">
        <path d="M62.4241979,38.0186028 C62.2412741,37.8890568 62.2716912,37.4703624 62.8732979,36.1663148 C63.1094779,35.6543096 63.6483558,34.7923103 64.5851824,33.9685359 C64.6936947,34.3073244 64.7598967,34.6321843 64.7580022,34.9346329 C64.7458985,36.9522831 63.2991377,37.7057864 62.4241979,38.0186028 L62.4241979,38.0186028 Z M54.7232963,39.765327 C54.4780647,39.892988 54.2532516,39.973208 54.1487388,39.911315 C54.0721171,39.8657592 54.2498836,39.697674 54.2498836,39.697674 C54.2498836,39.697674 55.5003539,38.3592763 55.9928168,37.7497713 C56.2793061,37.3953786 56.6114738,36.9746945 56.9734271,36.5041608 C56.9763741,36.5511827 56.9779529,36.5977858 56.9779529,36.6438652 C56.9742691,38.247429 55.4175225,39.3300859 54.7232963,39.765327 L54.7232963,39.765327 Z M44.7269012,35.0193562 C44.1484495,36.4225793 42.9377635,40.0124803 42.2009111,39.8200987 C41.5683611,39.6549459 41.1831477,36.9259969 42.0746116,34.2402998 C42.5232906,32.8883924 43.4817986,31.2729946 44.0448839,30.6460003 C44.9513985,29.6370704 45.9494804,29.307079 46.1919754,29.7161385 C46.5010934,30.2373596 45.0895913,34.1397629 44.7269012,35.0193562 L44.7269012,35.0193562 Z M32.6274089,43.203899 C30.9665704,45.0067563 28.6462381,45.6881034 27.6512085,45.1142052 C26.5768208,44.4943322 27.0023448,41.8401576 29.040503,39.9270239 C30.2827639,38.7611098 31.8864518,37.6872499 32.9503146,37.0258008 C33.1923887,36.88086 33.5481323,36.6679522 33.9803923,36.4102216 C34.0520673,36.3695879 34.0924831,36.3470718 34.0924831,36.3470718 L34.0909044,36.344349 C34.1743673,36.2947089 34.25983,36.2437073 34.3481344,36.1912396 C35.0897229,38.9143239 34.3706578,41.3117105 32.6274089,43.203899 L32.6274089,43.203899 Z M71.276109,30.2390352 C69.2611057,30.2496125 67.5158571,30.730933 66.0528878,31.4484106 C65.5177989,30.385861 64.9762898,29.4510771 64.8853542,28.756011 C64.7791574,27.9445943 64.6561206,27.4605509 64.7843146,26.4939303 C64.9126138,25.5273098 65.4746466,24.1585415 65.4664371,24.0560148 C65.4582277,23.9534881 65.3403481,23.4610667 64.1781822,23.4526886 C63.0159111,23.4444153 62.0217235,23.6751265 61.9047912,23.9805074 C61.7877537,24.2858883 61.563993,24.9731 61.4247478,25.689635 C61.2211951,26.738256 59.1043102,30.4780199 57.90236,32.4345102 C57.5092528,31.6709532 57.1749801,30.99767 57.1053049,30.4652433 C56.9992133,29.6538266 56.8760713,29.1697832 57.0042653,28.2030579 C57.1325645,27.2365421 57.6945973,25.8675644 57.6863878,25.7650377 C57.6781784,25.662511 57.5604041,25.1701943 56.3981329,25.1618162 C55.2358617,25.1535428 54.2416742,25.3842541 54.1247419,25.689635 C54.0077043,25.9950159 53.8827731,26.7085138 53.6446985,27.3987626 C53.406624,28.0891161 50.5926711,34.3275365 49.8557135,35.9445053 C49.4801829,36.7683844 49.153383,37.4302524 48.9226759,37.8823543 C48.9220444,37.8812024 48.9212024,37.8798409 48.9212024,37.8798409 C48.9212024,37.8798409 48.9069937,37.9098973 48.8824705,37.9606894 C48.6850223,38.3454525 48.5674585,38.5583604 48.5674585,38.5583604 C48.5674585,38.5583604 48.5687215,38.5612927 48.5709318,38.5663196 C48.4143204,38.8488702 48.2464473,39.1113134 48.1633001,39.1113134 C48.1052024,39.1113134 47.9889016,38.3591716 48.1886653,37.3267831 C48.6073481,35.162726 49.6132184,31.7878274 49.6032197,31.6715816 C49.5979572,31.6119925 49.790143,31.0239563 48.946357,30.7164809 C48.126147,30.4178024 47.8340794,30.9159838 47.759247,30.9175547 C47.68673,30.9191256 47.6328422,31.093599 47.6328422,31.093599 C47.6328422,31.093599 48.5466191,27.2983304 45.8899091,27.2983304 C44.2289654,27.2983304 41.9274727,29.1062146 40.7937242,30.7449663 C40.0782375,31.1332902 38.5471718,31.964919 36.9227497,32.8529951 C36.2988302,33.1939828 35.6621754,33.5426155 35.0584638,33.8735495 C35.0174165,33.8283079 34.9764744,33.7829616 34.9342693,33.7381388 C31.7128953,30.3183128 25.7577685,27.8994574 26.0103675,23.3018832 C26.1022504,21.630457 26.6861751,17.2294534 37.4532076,11.8909432 C46.2731228,7.51779672 53.3338965,8.72120267 54.5541602,11.3882586 C56.2973038,15.198503 50.7805416,22.2802815 41.6209859,23.3018832 C38.1311202,23.6911496 36.2935677,22.3454211 35.8364687,21.8440979 C35.3553729,21.3164886 35.2835927,21.2927158 35.1039316,21.3916818 C34.8113378,21.5530645 34.9967876,22.0188856 35.1039316,22.2965141 C35.3774753,23.0047757 36.4996464,24.2606493 38.4129786,24.8853397 C40.0961299,25.4349415 44.1934963,25.7368664 49.1484362,23.829702 C54.6982469,21.6937115 59.0317933,15.7517702 57.7589048,10.7850371 C56.4644401,5.73358062 48.0468941,4.07294115 40.0802373,6.88923153 C35.3388487,8.56526572 30.2061422,11.195877 26.5156707,14.6305741 C22.127605,18.7145722 21.4279058,22.2690759 21.7161844,23.7542994 C22.7406839,29.031545 30.0507938,32.4681272 32.9781005,35.0150624 C32.8335928,35.09434 32.6981366,35.1688001 32.5748894,35.2364531 C31.1072891,35.9588527 25.5349551,38.8604948 24.1411349,41.9263471 C22.5601808,45.4039819 24.3928919,47.8990778 25.6062091,48.2350386 C29.365619,49.2759099 33.223332,47.403724 35.2965384,44.3267707 C37.3693237,41.2505505 37.1161984,37.2449922 36.1648474,35.4165817 C36.1530595,35.3938562 36.1400085,35.3716543 36.1279048,35.3491382 C36.5068033,35.1259672 36.8932798,34.8990261 37.2762831,34.6752267 C38.0232394,34.2388336 38.756408,33.8316591 39.392747,33.4871107 C39.0367929,34.4578156 38.7759844,35.621321 38.6403177,37.3016489 C38.4809698,39.2757332 39.2940229,41.8273811 40.3579909,42.8312841 C40.8264568,43.2732276 41.3900683,43.2835955 41.7472854,43.2835955 C42.9853363,43.2835955 43.5503161,42.2587473 44.1722359,41.0466491 C44.9351901,39.5600641 45.6120502,37.8294677 45.6120502,37.8294677 C45.6120502,37.8294677 44.7624755,42.5044344 47.0772297,42.5044344 C47.9205946,42.5044344 48.7690115,41.416227 49.1468575,40.8613889 C49.14791,40.867463 49.1484362,40.8707095 49.1484362,40.8707095 C49.1484362,40.8707095 49.1704334,40.834579 49.2133752,40.7621087 C49.3009429,40.6288972 49.3505154,40.5440692 49.3505154,40.5440692 C49.3505154,40.5440692 49.3521994,40.5352722 49.3549359,40.5199822 C49.6939448,39.93425 50.4458479,38.5988893 51.5734919,36.3968167 C53.0303567,33.5517266 54.4277554,29.9875882 54.4277554,29.9875882 C54.4277554,29.9875882 54.5577387,30.8590129 54.9834732,32.2999373 C55.2339672,33.1477986 55.7661092,34.0849912 56.1859497,34.9837494 C55.8479933,35.4503035 55.6402306,35.7182972 55.6402306,35.7182972 C55.6402306,35.7182972 55.6422304,35.7232193 55.6459141,35.7322258 C55.3758437,36.0889224 55.0730406,36.473895 54.7562394,36.8492328 C53.6063877,38.2119269 52.2367748,39.7680499 52.0533248,40.2172195 C51.8373526,40.7463998 51.8883987,41.1356661 52.3059238,41.4487967 C52.6109371,41.6775182 53.1539197,41.7130203 53.7204782,41.6750048 C54.7538186,41.6058857 55.4808828,41.350878 55.8395734,41.1955694 C56.3987644,40.9987893 57.0499436,40.6893241 57.6611279,40.2423537 C58.7890877,39.4172179 59.469421,38.2368517 59.4040611,36.6732932 C59.3678552,35.811608 59.0916803,34.9575679 58.7423569,34.1512827 C58.8447648,34.0048758 58.9473831,33.8571075 59.0503172,33.7074541 C60.8285089,31.1208278 62.2078047,28.2784606 62.2078047,28.2784606 C62.2078047,28.2784606 62.337788,29.1497806 62.7636278,30.5908097 C62.9790737,31.320226 63.4041768,32.1158291 63.7864433,32.8962469 C62.1144484,34.2480495 61.0775295,35.8187294 60.7174706,36.8492328 C60.051767,38.754931 60.5731734,39.6185012 61.5511526,39.8150718 C61.9941481,39.9041936 62.6197516,39.7021773 63.0904278,39.503931 C63.6760365,39.3107116 64.3797352,38.9888888 65.0370188,38.5081966 C66.1649786,37.6830608 67.2494704,36.5276194 67.1841104,34.9641656 C67.1542195,34.2523433 66.9602445,33.545862 66.6970153,32.8671331 C68.1143062,32.2797252 69.9493327,31.9530849 72.2866103,32.2246393 C77.3007005,32.8072298 78.2843631,35.9224081 78.0963873,37.2262462 C77.9083063,38.5301891 76.8565472,39.2468288 76.5049084,39.4632974 C76.1533748,39.6796612 76.0460202,39.7547497 76.0755953,39.9157135 C76.1183266,40.1496713 76.2809373,40.1406648 76.5806881,40.0903964 C76.9934769,40.0210678 79.2137169,39.0298366 79.3087573,36.6231295 C79.4294786,33.567645 76.4874369,30.2113876 71.276109,30.2390352 L71.276109,30.2390352 Z" id="Fill-1" fill="#555555"></path>
    </g>
</svg>