<?xml version="1.0" encoding="UTF-8" standalone="no"?>
<svg width="100px" height="100px" viewBox="0 0 100 100" version="1.1" xmlns="http://www.w3.org/2000/svg" xmlns:xlink="http://www.w3.org/1999/xlink">
    <defs></defs>
    <g id="Page-1" stroke="none" stroke-width="1" fill="none" fill-rule="evenodd">
        <rect id="Rectangle-1" fill="#C6538C" x="0" y="0" width="100" height="100"></rect>
        <g transform="translate(22.000000, 29.000000)" id="Fill-1" fill="#FFFFFF">
            <path d="M40.4241979,32.0186028 C40.2412741,31.8890568 40.2716912,31.4703624 40.8732979,30.1663148 C41.1094779,29.6543096 41.6483558,28.7923103 42.5851824,27.9685359 C42.6936947,28.3073244 42.7598967,28.6321843 42.7580022,28.9346329 C42.7458985,30.9522831 41.2991377,31.7057864 40.4241979,32.0186028 L40.4241979,32.0186028 L40.4241979,32.0186028 Z M32.7232963,33.765327 C32.4780647,33.892988 32.2532516,33.973208 32.1487388,33.911315 C32.0721171,33.8657592 32.2498836,33.697674 32.2498836,33.697674 C32.2498836,33.697674 33.5003539,32.3592763 33.9928168,31.7497713 C34.2793061,31.3953786 34.6114738,30.9746945 34.9734271,30.5041608 C34.9763741,30.5511827 34.9779529,30.5977858 34.9779529,30.6438652 C34.9742691,32.247429 33.4175225,33.3300859 32.7232963,33.765327 L32.7232963,33.765327 L32.7232963,33.765327 Z M22.7269012,29.0193562 C22.1484495,30.4225793 20.9377635,34.0124803 20.2009111,33.8200987 C19.5683611,33.6549459 19.1831477,30.9259969 20.0746116,28.2402998 C20.5232906,26.8883924 21.4817986,25.2729946 22.0448839,24.6460003 C22.9513985,23.6370704 23.9494804,23.307079 24.1919754,23.7161385 C24.5010934,24.2373596 23.0895913,28.1397629 22.7269012,29.0193562 L22.7269012,29.0193562 L22.7269012,29.0193562 Z M10.6274089,37.203899 C8.9665704,39.0067563 6.6462381,39.6881034 5.6512085,39.1142052 C4.5768208,38.4943322 5.0023448,35.8401576 7.040503,33.9270239 C8.2827639,32.7611098 9.8864518,31.6872499 10.9503146,31.0258008 C11.1923887,30.88086 11.5481323,30.6679522 11.9803923,30.4102216 C12.0520673,30.3695879 12.0924831,30.3470718 12.0924831,30.3470718 L12.0909044,30.344349 C12.1743673,30.2947089 12.25983,30.2437073 12.3481344,30.1912396 C13.0897229,32.9143239 12.3706578,35.3117105 10.6274089,37.203899 L10.6274089,37.203899 L10.6274089,37.203899 Z M49.276109,24.2390352 C47.2611057,24.2496125 45.5158571,24.730933 44.0528878,25.4484106 C43.5177989,24.385861 42.9762898,23.4510771 42.8853542,22.756011 C42.7791574,21.9445943 42.6561206,21.4605509 42.7843146,20.4939303 C42.9126138,19.5273098 43.4746466,18.1585415 43.4664371,18.0560148 C43.4582277,17.9534881 43.3403481,17.4610667 42.1781822,17.4526886 C41.0159111,17.4444153 40.0217235,17.6751265 39.9047912,17.9805074 C39.7877537,18.2858883 39.563993,18.9731 39.4247478,19.689635 C39.2211951,20.738256 37.1043102,24.4780199 35.90236,26.4345102 C35.5092528,25.6709532 35.1749801,24.99767 35.1053049,24.4652433 C34.9992133,23.6538266 34.8760713,23.1697832 35.0042653,22.2030579 C35.1325645,21.2365421 35.6945973,19.8675644 35.6863878,19.7650377 C35.6781784,19.662511 35.5604041,19.1701943 34.3981329,19.1618162 C33.2358617,19.1535428 32.2416742,19.3842541 32.1247419,19.689635 C32.0077043,19.9950159 31.8827731,20.7085138 31.6446985,21.3987626 C31.406624,22.0891161 28.5926711,28.3275365 27.8557135,29.9445053 C27.4801829,30.7683844 27.153383,31.4302524 26.9226759,31.8823543 C26.9220444,31.8812024 26.9212024,31.8798409 26.9212024,31.8798409 C26.9212024,31.8798409 26.9069937,31.9098973 26.8824705,31.9606894 C26.6850223,32.3454525 26.5674585,32.5583604 26.5674585,32.5583604 C26.5674585,32.5583604 26.5687215,32.5612927 26.5709318,32.5663196 C26.4143204,32.8488702 26.2464473,33.1113134 26.1633001,33.1113134 C26.1052024,33.1113134 25.9889016,32.3591716 26.1886653,31.3267831 C26.6073481,29.162726 27.6132184,25.7878274 27.6032197,25.6715816 C27.5979572,25.6119925 27.790143,25.0239563 26.946357,24.7164809 C26.126147,24.4178024 25.8340794,24.9159838 25.759247,24.9175547 C25.68673,24.9191256 25.6328422,25.093599 25.6328422,25.093599 C25.6328422,25.093599 26.5466191,21.2983304 23.8899091,21.2983304 C22.2289654,21.2983304 19.9274727,23.1062146 18.7937242,24.7449663 C18.0782375,25.1332902 16.5471718,25.964919 14.9227497,26.8529951 C14.2988302,27.1939828 13.6621754,27.5426155 13.0584638,27.8735495 C13.0174165,27.8283079 12.9764744,27.7829616 12.9342693,27.7381388 C9.7128953,24.3183128 3.7577685,21.8994574 4.0103675,17.3018832 C4.1022504,15.630457 4.6861751,11.2294534 15.4532076,5.8909432 C24.2731228,1.51779672 31.3338965,2.72120267 32.5541602,5.3882586 C34.2973038,9.198503 28.7805416,16.2802815 19.6209859,17.3018832 C16.1311202,17.6911496 14.2935677,16.3454211 13.8364687,15.8440979 C13.3553729,15.3164886 13.2835927,15.2927158 13.1039316,15.3916818 C12.8113378,15.5530645 12.9967876,16.0188856 13.1039316,16.2965141 C13.3774753,17.0047757 14.4996464,18.2606493 16.4129786,18.8853397 C18.0961299,19.4349415 22.1934963,19.7368664 27.1484362,17.829702 C32.6982469,15.6937115 37.0317933,9.7517702 35.7589048,4.7850371 C34.4644401,-0.26641938 26.0468941,-1.92705885 18.0802373,0.88923153 C13.3388487,2.56526572 8.2061422,5.195877 4.5156707,8.6305741 C0.127605,12.7145722 -0.5720942,16.2690759 -0.2838156,17.7542994 C0.7406839,23.031545 8.0507938,26.4681272 10.9781005,29.0150624 C10.8335928,29.09434 10.6981366,29.1688001 10.5748894,29.2364531 C9.1072891,29.9588527 3.5349551,32.8604948 2.1411349,35.9263471 C0.5601808,39.4039819 2.3928919,41.8990778 3.6062091,42.2350386 C7.365619,43.2759099 11.223332,41.403724 13.2965384,38.3267707 C15.3693237,35.2505505 15.1161984,31.2449922 14.1648474,29.4165817 C14.1530595,29.3938562 14.1400085,29.3716543 14.1279048,29.3491382 C14.5068033,29.1259672 14.8932798,28.8990261 15.2762831,28.6752267 C16.0232394,28.2388336 16.756408,27.8316591 17.392747,27.4871107 C17.0367929,28.4578156 16.7759844,29.621321 16.6403177,31.3016489 C16.4809698,33.2757332 17.2940229,35.8273811 18.3579909,36.8312841 C18.8264568,37.2732276 19.3900683,37.2835955 19.7472854,37.2835955 C20.9853363,37.2835955 21.5503161,36.2587473 22.1722359,35.0466491 C22.9351901,33.5600641 23.6120502,31.8294677 23.6120502,31.8294677 C23.6120502,31.8294677 22.7624755,36.5044344 25.0772297,36.5044344 C25.9205946,36.5044344 26.7690115,35.416227 27.1468575,34.8613889 C27.14791,34.867463 27.1484362,34.8707095 27.1484362,34.8707095 C27.1484362,34.8707095 27.1704334,34.834579 27.2133752,34.7621087 C27.3009429,34.6288972 27.3505154,34.5440692 27.3505154,34.5440692 C27.3505154,34.5440692 27.3521994,34.5352722 27.3549359,34.5199822 C27.6939448,33.93425 28.4458479,32.5988893 29.5734919,30.3968167 C31.0303567,27.5517266 32.4277554,23.9875882 32.4277554,23.9875882 C32.4277554,23.9875882 32.5577387,24.8590129 32.9834732,26.2999373 C33.2339672,27.1477986 33.7661092,28.0849912 34.1859497,28.9837494 C33.8479933,29.4503035 33.6402306,29.7182972 33.6402306,29.7182972 C33.6402306,29.7182972 33.6422304,29.7232193 33.6459141,29.7322258 C33.3758437,30.0889224 33.0730406,30.473895 32.7562394,30.8492328 C31.6063877,32.2119269 30.2367748,33.7680499 30.0533248,34.2172195 C29.8373526,34.7463998 29.8883987,35.1356661 30.3059238,35.4487967 C30.6109371,35.6775182 31.1539197,35.7130203 31.7204782,35.6750048 C32.7538186,35.6058857 33.4808828,35.350878 33.8395734,35.1955694 C34.3987644,34.9987893 35.0499436,34.6893241 35.6611279,34.2423537 C36.7890877,33.4172179 37.469421,32.2368517 37.4040611,30.6732932 C37.3678552,29.811608 37.0916803,28.9575679 36.7423569,28.1512827 C36.8447648,28.0048758 36.9473831,27.8571075 37.0503172,27.7074541 C38.8285089,25.1208278 40.2078047,22.2784606 40.2078047,22.2784606 C40.2078047,22.2784606 40.337788,23.1497806 40.7636278,24.5908097 C40.9790737,25.320226 41.4041768,26.1158291 41.7864433,26.8962469 C40.1144484,28.2480495 39.0775295,29.8187294 38.7174706,30.8492328 C38.051767,32.754931 38.5731734,33.6185012 39.5511526,33.8150718 C39.9941481,33.9041936 40.6197516,33.7021773 41.0904278,33.503931 C41.6760365,33.3107116 42.3797352,32.9888888 43.0370188,32.5081966 C44.1649786,31.6830608 45.2494704,30.5276194 45.1841104,28.9641656 C45.1542195,28.2523433 44.9602445,27.545862 44.6970153,26.8671331 C46.1143062,26.2797252 47.9493327,25.9530849 50.2866103,26.2246393 C55.3007005,26.8072298 56.2843631,29.9224081 56.0963873,31.2262462 C55.9083063,32.5301891 54.8565472,33.2468288 54.5049084,33.4632974 C54.1533748,33.6796612 54.0460202,33.7547497 54.0755953,33.9157135 C54.1183266,34.1496713 54.2809373,34.1406648 54.5806881,34.0903964 C54.9934769,34.0210678 57.2137169,33.0298366 57.3087573,30.6231295 C57.4294786,27.567645 54.4874369,24.2113876 49.276109,24.2390352 L49.276109,24.2390352 L49.276109,24.2390352 Z"></path>
        </g>
    </g>
</svg>